<?xml version="1.0" standalone="no"?>
<!DOCTYPE svg PUBLIC "-//W3C//DTD SVG 20010904//EN"
 "http://www.w3.org/TR/2001/REC-SVG-20010904/DTD/svg10.dtd">
<svg version="1.0" xmlns="http://www.w3.org/2000/svg"
 width="1470.000000pt" height="704.000000pt" viewBox="0 0 1470.000000 704.000000"
 preserveAspectRatio="xMidYMid meet">
<metadata>
Created by potrace 1.16, written by Peter Selinger 2001-2019
</metadata>
<g transform="translate(0.000000,704.000000) scale(0.100000,-0.100000)"
fill="#000000" stroke="none">
<path d="M1530 4827 c-51 -16 -126 -95 -140 -148 -19 -69 -7 -162 27 -217 53
-86 166 -123 277 -90 63 19 130 91 146 157 22 92 -3 194 -62 248 -59 55 -164
77 -248 50z m170 -115 c39 -39 56 -104 40 -156 -32 -108 -149 -140 -219 -61
-55 63 -53 155 4 212 30 30 39 33 90 33 49 0 60 -4 85 -28z"/>
<path d="M4977 4825 c-60 -23 -91 -50 -121 -105 -23 -42 -28 -64 -28 -120 -1
-155 106 -251 265 -237 80 7 107 27 107 77 0 45 -3 46 -53 25 -78 -32 -164 -8
-199 56 -36 68 -15 164 45 203 37 25 107 30 151 12 21 -9 40 -16 42 -16 2 0 4
20 4 45 0 35 -4 47 -22 56 -35 19 -147 21 -191 4z"/>
<path d="M6227 4827 c-52 -16 -103 -60 -129 -110 -31 -59 -32 -175 -1 -232 43
-81 114 -125 201 -125 98 0 172 43 215 125 30 56 30 174 0 230 -55 104 -168
148 -286 112z m115 -87 c11 0 35 -15 53 -33 58 -58 56 -164 -5 -222 -27 -26
-39 -30 -85 -30 -46 0 -58 4 -85 30 -57 54 -63 156 -13 215 25 30 76 52 101
44 8 -2 23 -4 34 -4z"/>
<path d="M1000 4785 l0 -45 65 0 65 0 0 -185 0 -185 50 0 50 0 0 185 0 185 65
0 65 0 0 45 0 45 -180 0 -180 0 0 -45z"/>
<path d="M1920 4600 l0 -230 130 0 c144 0 183 10 218 55 16 20 22 42 22 77 0
43 -4 54 -34 84 -24 24 -31 36 -22 42 35 20 47 95 23 142 -23 47 -69 60 -209
60 l-128 0 0 -230z m256 -55 c40 -55 1 -95 -93 -95 l-63 0 0 61 0 61 71 -4
c55 -3 74 -8 85 -23z"/>
<path d="M2571 4773 c-112 -127 -214 -281 -250 -376 l-11 -27 53 0 c50 0 53 2
72 38 l20 37 95 6 c52 4 98 5 102 2 4 -2 13 -22 19 -43 l12 -40 60 0 c53 0 58
2 52 18 -71 163 -79 196 -83 320 l-4 122 -43 0 c-41 0 -47 -4 -94 -57z"/>
<path d="M2860 4600 l0 -230 50 0 50 0 0 74 0 73 85 5 c65 3 92 9 112 24 100
75 95 212 -10 263 -37 18 -62 21 -165 21 l-122 0 0 -230z m240 120 c11 -11 20
-31 20 -45 0 -44 -32 -65 -100 -65 l-60 0 0 65 0 65 60 0 c47 0 64 -4 80 -20z"/>
<path d="M3290 4599 l0 -230 48 3 47 3 95 136 95 136 3 -138 3 -139 49 0 50 0
0 231 0 230 -47 -3 c-52 -3 -40 10 -205 -229 l-38 -54 0 143 0 142 -50 0 -50
0 0 -231z"/>
<path d="M3770 4600 l0 -230 265 0 265 0 0 -45 0 -45 48 0 47 0 3 38 c1 20 0
61 -4 90 -5 47 -8 52 -30 52 l-24 0 0 185 0 185 -50 0 -50 0 0 -185 0 -185
-65 0 -65 0 0 163 c0 210 0 207 -61 207 l-49 0 0 -185 0 -185 -59 0 c-73 0
-71 -7 -71 208 l0 162 -50 0 -50 0 0 -230z"/>
<path d="M4460 4600 l0 -230 160 0 160 0 0 45 0 45 -110 0 -110 0 0 50 0 50
95 0 95 0 0 45 0 45 -95 0 -95 0 0 45 0 45 105 0 105 0 0 45 0 45 -155 0 -155
0 0 -230z"/>
<path d="M5230 4785 l0 -45 65 0 65 0 0 -185 0 -185 50 0 50 0 0 185 0 185 65
0 65 0 0 45 0 45 -180 0 -180 0 0 -45z"/>
<path d="M5650 4601 l0 -231 135 0 c151 0 197 13 225 65 31 57 12 140 -37 166
-24 13 -24 13 -4 29 50 37 43 133 -12 174 -25 19 -45 21 -168 24 l-139 4 0
-231z m240 -44 c17 -9 26 -22 28 -44 4 -45 -26 -63 -105 -63 l-63 0 0 60 0 60
58 0 c31 0 68 -6 82 -13z"/>
<path d="M7024 3878 l-194 -191 0 -568 0 -567 63 -7 c34 -3 125 -5 202 -3
l140 3 0 573 -1 572 246 0 246 0 194 181 c107 99 197 184 198 190 2 5 -168 9
-448 9 l-451 0 -195 -192z"/>
<path d="M8271 3885 l-191 -188 0 -572 0 -573 143 -7 c78 -4 167 -5 197 -3
l55 3 3 578 2 577 118 0 c92 0 126 -4 157 -19 111 -50 146 -192 76 -303 -40
-62 -95 -88 -189 -88 l-72 0 0 -181 0 -181 128 4 c149 6 232 30 329 96 206
140 299 408 227 652 -50 169 -172 299 -337 358 -66 24 -88 27 -263 30 l-191 4
-192 -187z"/>
<path d="M10125 3893 c-105 -97 -289 -269 -410 -382 -121 -114 -251 -235 -290
-270 -38 -36 -103 -96 -142 -134 l-73 -69 0 -239 c0 -228 1 -239 20 -249 22
-12 2 -29 410 359 231 220 592 557 636 594 l34 28 0 -195 0 -196 -132 -2 c-73
-1 -141 -1 -152 -1 -10 0 -104 -80 -216 -186 l-198 -186 350 -3 351 -2 -7
-100 c-5 -89 -4 -100 11 -108 10 -4 101 -8 203 -7 l185 0 3 763 2 762 -198 0
-198 0 -189 -177z"/>
<path d="M11117 3887 l-187 -182 0 -576 0 -577 153 -7 c83 -4 175 -5 202 -3
l50 3 3 293 2 292 260 0 260 0 0 -292 0 -293 198 1 197 0 3 762 2 762 -200 0
-200 0 0 -285 0 -285 -260 0 -260 0 -2 282 c-3 242 -5 283 -18 285 -8 1 -99
-80 -203 -180z"/>
<path d="M12656 3889 l-186 -181 0 -584 0 -585 143 2 c78 2 168 4 200 7 l57 4
0 759 c0 640 -2 759 -14 759 -7 0 -97 -81 -200 -181z"/>
<path d="M1155 4009 c-45 -13 -105 -67 -126 -113 -12 -27 -19 -64 -19 -106 0
-80 24 -135 75 -177 48 -40 111 -57 179 -50 81 8 96 19 96 72 l0 44 -35 -15
c-49 -20 -124 -18 -159 5 -41 27 -55 57 -56 119 0 65 21 106 66 127 41 19 117
19 154 0 l30 -16 0 50 c0 49 -1 50 -37 60 -45 13 -126 13 -168 0z"/>
<path d="M1545 4008 c-135 -48 -185 -228 -99 -358 67 -100 229 -120 328 -39
98 82 104 263 10 351 -57 54 -161 73 -239 46z m145 -93 c86 -45 83 -213 -5
-253 -92 -42 -185 23 -185 128 0 108 98 172 190 125z"/>
<path d="M2452 4007 c-91 -34 -142 -110 -142 -217 0 -143 88 -230 233 -230 26
0 63 7 82 14 33 14 35 18 35 61 l0 46 -30 -16 c-42 -22 -126 -19 -165 5 -30
19 -44 41 -60 97 -10 35 12 96 45 128 28 27 38 30 93 30 34 0 74 -4 90 -9 27
-8 27 -8 27 37 0 45 -1 46 -37 56 -49 14 -129 13 -171 -2z"/>
<path d="M5807 4010 c-44 -13 -95 -57 -119 -103 -18 -33 -23 -59 -23 -118 0
-67 3 -81 30 -124 97 -157 345 -130 404 44 37 113 -15 247 -113 292 -43 20
-129 24 -179 9z m164 -119 c35 -35 39 -44 39 -90 0 -100 -43 -151 -130 -151
-32 0 -48 7 -77 33 -31 29 -37 41 -41 89 -7 93 46 158 132 158 31 0 45 -7 77
-39z"/>
<path d="M1920 3790 l0 -220 120 0 c88 0 128 4 152 16 68 33 93 102 63 179
-23 63 -68 85 -170 85 l-76 0 3 38 3 37 108 3 107 3 0 39 0 40 -155 0 -155 0
0 -220z m230 -40 c24 -24 26 -57 3 -82 -12 -14 -31 -18 -80 -18 l-63 0 0 53
c0 30 3 57 7 60 3 4 30 7 60 7 40 0 58 -5 73 -20z"/>
<path d="M2690 3970 l0 -40 65 0 65 0 0 -180 0 -180 50 0 50 0 0 180 0 180 60
0 60 0 0 40 0 40 -175 0 -175 0 0 -40z"/>
<path d="M3100 3790 l0 -220 133 0 c115 0 136 3 165 20 68 41 78 137 21 191
-24 23 -27 29 -14 39 26 22 38 76 25 116 -21 61 -55 74 -202 74 l-128 0 0
-220z m242 -47 c22 -20 23 -56 2 -77 -11 -12 -35 -16 -85 -16 l-69 0 0 55 0
55 67 0 c48 0 72 -5 85 -17z"/>
<path d="M3520 3790 l0 -220 155 0 155 0 0 40 0 39 -107 3 -108 3 -3 48 -3 47
58 2 c32 1 75 1 96 0 l37 -2 0 44 0 45 -92 3 -93 3 0 40 0 40 103 3 102 3 0
39 0 40 -150 0 -150 0 0 -220z"/>
<path d="M3890 3790 l0 -220 50 0 50 0 0 90 0 90 90 0 90 0 0 -90 0 -90 50 0
50 0 0 220 0 220 -50 0 -50 0 0 -85 0 -85 -90 0 -90 0 0 85 0 85 -50 0 -50 0
0 -220z"/>
<path d="M4350 3790 l0 -220 50 0 50 0 0 90 0 90 90 0 90 0 0 -90 0 -90 50 0
50 0 0 220 0 220 -50 0 -50 0 0 -85 0 -85 -90 0 -90 0 0 85 0 85 -50 0 -50 0
0 -220z"/>
<path d="M4810 3789 l0 -220 47 3 47 3 90 133 91 133 3 -136 3 -136 47 3 47 3
3 65 c2 36 1 134 -3 218 l-7 152 -42 0 -43 0 -89 -129 -89 -129 -3 129 -3 129
-49 0 -50 0 0 -221z"/>
<path d="M5270 3791 l0 -221 50 0 50 0 0 90 0 90 28 0 c23 0 35 -13 86 -90
l59 -90 53 0 c57 0 62 4 41 29 -8 9 -42 58 -76 108 l-63 93 71 105 72 105 -55
0 -55 0 -56 -86 c-49 -74 -60 -85 -82 -82 -25 3 -26 5 -27 83 l-1 80 -47 3
-48 3 0 -220z"/>
<path d="M6180 3789 l0 -221 139 4 c160 3 185 14 210 85 18 49 9 88 -28 122
-27 25 -27 26 -9 46 44 46 33 126 -21 162 -31 21 -45 23 -162 23 l-129 0 0
-221z m242 -46 c20 -18 23 -45 8 -74 -9 -16 -22 -19 -85 -19 l-75 0 0 55 0 55
67 0 c48 0 72 -5 85 -17z"/>
<path d="M12950 3490 l0 -190 93 0 c104 0 159 -19 195 -64 50 -64 54 -157 9
-225 -38 -57 -84 -75 -203 -79 l-102 -4 -6 -30 c-3 -17 -6 -102 -6 -188 l0
-158 31 -7 c42 -9 221 4 289 21 197 51 359 213 405 405 22 96 19 212 -8 307
-31 105 -77 181 -156 254 -115 105 -238 148 -428 148 l-113 0 0 -190z"/>
<path d="M3726 3208 c4 -7 41 -64 81 -126 l73 -113 -80 -129 c-44 -71 -80
-134 -80 -140 0 -7 23 -10 62 -8 l63 3 65 107 c51 84 70 107 88 108 21 0 22
-2 22 -110 l0 -110 55 0 55 0 0 110 0 110 25 0 c26 0 35 -11 114 -147 l42 -73
66 0 c78 0 80 -11 -22 152 -41 65 -75 121 -75 124 0 2 34 59 75 125 41 67 75
123 75 125 0 2 -29 4 -64 4 l-64 0 -61 -106 c-52 -88 -66 -105 -84 -102 -21 3
-22 9 -25 106 l-3 102 -54 0 -55 0 0 -106 c0 -103 0 -105 -22 -102 -16 2 -40
32 -86 106 l-63 102 -65 0 c-50 0 -63 -3 -58 -12z"/>
<path d="M4502 2958 l3 -263 47 -3 c45 -3 48 -2 85 45 21 27 74 101 118 166
l80 117 3 -165 2 -165 55 0 55 0 0 265 0 265 -53 0 -54 0 -103 -151 c-57 -83
-108 -153 -112 -155 -4 -3 -8 65 -8 150 l0 156 -60 0 -60 0 2 -262z"/>
<path d="M5135 3128 c-17 -246 -37 -319 -89 -328 -17 -3 -29 -8 -28 -12 1 -5
2 -28 2 -53 l0 -45 49 0 c55 0 99 28 127 82 19 37 40 147 49 261 l7 87 69 0
69 0 0 -215 0 -215 55 0 55 0 0 265 0 265 -179 0 -179 0 -7 -92z"/>
<path d="M5610 2954 l0 -266 143 4 c159 4 200 16 240 72 31 44 32 171 1 213
-36 50 -97 73 -191 73 l-83 0 0 85 0 85 -55 0 -55 0 0 -266z m253 -15 c30 -16
37 -28 37 -70 0 -55 -27 -74 -109 -74 l-66 0 -3 78 -3 77 61 0 c34 0 71 -5 83
-11z"/>
<path d="M6185 3206 c-61 -27 -105 -94 -105 -158 0 -45 37 -115 71 -135 16
-10 29 -21 29 -25 0 -5 -29 -49 -65 -98 -36 -49 -65 -92 -65 -95 0 -3 30 -5
67 -3 l67 3 61 90 c59 87 62 90 103 93 l42 3 0 -95 0 -96 55 0 55 0 0 265 0
265 -142 0 c-97 -1 -153 -5 -173 -14z m205 -156 l0 -70 -75 0 c-62 0 -79 4
-95 20 -26 26 -25 68 2 97 19 20 31 23 95 23 l73 0 0 -70z"/>
<path d="M3717 2423 c-4 -3 -7 -42 -7 -85 l0 -78 4980 0 4980 0 0 85 0 85
-4973 0 c-2736 0 -4977 -3 -4980 -7z"/>
</g>
</svg>
