<?xml version="1.0" standalone="no"?>
<!DOCTYPE svg PUBLIC "-//W3C//DTD SVG 20010904//EN"
 "http://www.w3.org/TR/2001/REC-SVG-20010904/DTD/svg10.dtd">
<svg version="1.0" xmlns="http://www.w3.org/2000/svg"
 width="1254.000000pt" height="1254.000000pt" viewBox="0 0 1254.000000 1254.000000"
 preserveAspectRatio="xMidYMid meet">
<metadata>
Created by potrace 1.16, written by Peter Selinger 2001-2019
</metadata>
<g transform="translate(0.000000,1254.000000) scale(0.100000,-0.100000)"
fill="#000000" stroke="none">
<path d="M6242 11868 c-52 -571 -200 -1819 -217 -1837 -3 -2 -188 118 -411
268 -223 150 -408 271 -410 268 -2 -2 67 -93 153 -203 87 -109 226 -289 310
-399 142 -186 151 -200 130 -207 -24 -8 -637 -88 -857 -113 -274 -30 -867 -85
-922 -85 -68 0 21 -13 268 -40 488 -52 1506 -189 1521 -204 3 -3 1 -11 -4 -18
-5 -7 -124 -161 -263 -343 -140 -181 -273 -355 -297 -385 -23 -30 -40 -56 -38
-58 4 -5 78 44 531 351 288 194 292 196 297 169 3 -15 20 -132 38 -261 l33
-233 59 6 c33 3 73 6 88 6 l29 0 0 491 c0 456 1 490 17 478 14 -13 160 -186
191 -229 11 -15 4 -78 -39 -379 -28 -199 -50 -363 -48 -365 2 -2 13 -6 24 -8
18 -3 21 14 55 249 19 138 38 254 42 258 3 4 118 -70 255 -163 449 -305 554
-375 558 -371 2 3 -70 101 -161 219 -472 612 -448 580 -439 588 13 14 1021
147 1565 208 210 23 281 34 224 34 -33 0 -481 39 -689 61 -216 21 -1051 125
-1091 135 l-24 6 22 32 c42 58 291 380 438 566 81 102 150 191 155 199 12 21
-25 -3 -443 -282 -205 -137 -374 -248 -376 -246 -5 7 -74 524 -121 914 -46
388 -101 910 -112 1077 -3 54 -9 98 -12 98 -4 0 -17 -114 -29 -252z m68 -798
c7 -63 27 -221 46 -350 83 -577 132 -912 136 -914 1 -1 39 -13 83 -26 44 -12
83 -24 87 -27 4 -2 -47 -51 -115 -109 l-122 -104 -70 2 -70 3 -1 865 c-1 476
2 845 6 820 4 -25 13 -97 20 -160z m-267 -1430 c80 -38 157 -72 171 -76 71
-18 -1 -22 -276 -19 -167 3 -521 7 -787 10 -267 3 -486 7 -488 8 -1 2 61 9
140 15 135 12 876 103 982 121 94 16 107 13 258 -59z m1805 -115 c-3 -3 -81
-15 -174 -25 -233 -27 -628 -79 -961 -127 -36 -5 -51 0 -110 33 l-68 38 35 7
c46 10 433 35 835 54 176 9 331 17 345 19 45 6 103 6 98 1z"/>
<path d="M5095 11266 c-611 -162 -1161 -427 -1643 -792 -216 -163 -516 -448
-694 -659 -306 -364 -508 -743 -573 -1075 -22 -113 -30 -349 -16 -480 16 -143
89 -442 91 -367 0 10 5 61 11 115 74 675 510 1424 1250 2147 572 558 1141 931
1722 1125 37 13 67 24 67 26 0 11 -73 -2 -215 -40z"/>
<path d="M7355 11261 c611 -225 1203 -630 1755 -1197 597 -614 969 -1208 1110
-1773 27 -108 59 -310 61 -384 0 -29 2 -27 20 23 11 30 32 111 46 180 24 112
27 147 27 335 1 164 -3 229 -17 298 -63 312 -241 653 -523 1007 -140 175 -471
507 -644 644 -275 219 -532 382 -835 531 -307 150 -636 273 -942 349 -194 49
-213 45 -58 -13z"/>
<path d="M3895 9945 c-241 -173 -443 -355 -627 -564 -459 -523 -721 -1083
-769 -1641 -36 -435 76 -811 451 -1509 34 -62 59 -115 57 -117 -7 -8 -216 280
-298 413 -305 490 -591 1155 -677 1578 -84 409 -33 880 134 1244 19 41 32 76
30 78 -11 11 -178 -275 -271 -462 -149 -301 -221 -511 -265 -770 -19 -112 -21
-154 -17 -305 6 -187 18 -264 68 -415 142 -428 583 -1012 1392 -1840 113 -115
204 -211 203 -212 -3 -3 -209 141 -326 229 -460 344 -984 898 -1253 1322 -124
195 -228 437 -260 603 -6 35 -14 63 -18 63 -9 0 -29 -210 -36 -370 -17 -402
79 -756 275 -1015 265 -348 848 -776 1675 -1229 38 -21 67 -40 64 -42 -7 -7
-247 66 -387 118 -74 28 -217 90 -317 138 -646 312 -1165 748 -1383 1163 -29
55 -40 60 -35 15 2 -18 9 -76 15 -128 53 -441 239 -825 510 -1054 306 -258
827 -453 1480 -556 216 -34 220 -35 115 -46 -147 -15 -504 -9 -645 10 -479 65
-890 253 -1193 545 -48 46 -87 81 -87 77 0 -20 86 -223 131 -311 185 -358 417
-572 725 -669 260 -81 591 -74 1094 24 85 16 155 28 157 26 5 -5 -244 -120
-322 -150 -410 -153 -808 -175 -1107 -62 -38 14 -68 23 -68 20 0 -13 134 -165
188 -215 86 -79 220 -163 315 -197 292 -106 557 -44 1051 247 75 45 139 81
142 81 3 0 -16 -28 -42 -61 -189 -246 -442 -429 -699 -505 -70 -20 -121 -28
-230 -33 l-140 -6 85 -63 c249 -188 486 -234 718 -141 130 52 231 128 416 312
183 183 184 183 121 28 -96 -235 -260 -434 -443 -538 -69 -39 -190 -83 -228
-83 -28 0 -32 -15 -6 -23 9 -3 50 -19 90 -36 201 -84 397 -76 562 24 118 71
250 217 358 393 l54 87 -7 -60 c-15 -141 -79 -320 -153 -427 -79 -114 -196
-212 -306 -256 -27 -10 -45 -21 -40 -25 34 -20 151 -41 239 -41 252 -1 444
137 581 418 l44 90 0 -80 c-1 -243 -130 -469 -325 -571 l-50 -27 35 -8 c19 -5
78 -9 130 -10 108 -1 195 18 274 60 108 57 240 220 285 353 9 28 20 47 24 43
13 -13 7 -189 -8 -249 -29 -110 -90 -202 -190 -283 l-40 -33 75 8 c154 16 284
-1 404 -56 226 -102 426 -326 577 -645 119 -254 250 -756 285 -1099 4 -37 10
-67 14 -67 4 0 10 28 14 63 13 122 67 415 106 572 77 316 187 584 321 785 85
128 240 283 344 343 149 87 312 125 459 107 113 -14 113 -14 59 29 -84 66
-149 168 -177 278 -17 63 -22 238 -8 247 4 2 16 -19 26 -47 52 -146 180 -300
297 -355 35 -16 89 -36 119 -43 58 -14 212 -15 269 -1 l34 7 -67 40 c-182 106
-306 334 -306 559 l0 81 30 -63 c103 -219 258 -373 425 -424 89 -28 239 -30
335 -4 36 10 69 20 74 23 5 3 -23 20 -62 38 -103 48 -155 87 -228 173 -105
123 -193 329 -209 494 l-6 63 22 -35 c140 -220 228 -327 322 -397 220 -162
410 -173 710 -40 15 6 27 14 27 17 0 3 -33 13 -73 22 -255 61 -500 302 -621
611 -61 154 -60 154 90 -2 206 -214 380 -335 534 -372 77 -19 222 -17 300 4
89 24 217 86 309 152 122 85 122 85 -3 85 -279 0 -555 124 -799 359 -82 79
-205 227 -196 235 2 2 60 -30 129 -71 398 -238 660 -325 887 -293 238 32 433
156 639 404 33 40 42 57 29 52 -335 -130 -687 -126 -1089 10 -120 41 -404 169
-395 178 2 2 81 -11 174 -30 293 -57 398 -68 640 -68 244 0 329 13 494 73 276
101 502 324 675 669 39 77 116 266 116 283 0 6 -44 -31 -99 -82 -295 -281
-681 -459 -1146 -531 -156 -23 -511 -31 -680 -14 -105 11 -119 7 195 62 237
42 513 108 685 166 801 266 1143 690 1240 1536 7 63 -5 67 -31 10 -30 -68
-138 -223 -224 -323 -192 -223 -476 -453 -815 -660 -145 -88 -499 -262 -652
-319 -131 -49 -393 -129 -401 -122 -2 3 18 16 45 29 160 82 613 355 849 513
402 269 709 535 857 741 196 274 281 599 264 1011 -8 170 -27 363 -37 357 -4
-3 -10 -25 -14 -51 -16 -121 -122 -380 -225 -553 -257 -428 -820 -1027 -1316
-1398 -105 -78 -248 -179 -295 -207 -8 -5 96 105 231 245 554 572 897 980
1125 1336 133 208 215 386 267 583 30 112 31 121 31 340 1 211 -1 233 -28 354
-59 275 -177 568 -354 881 -96 172 -215 339 -154 218 38 -76 92 -223 121 -334
104 -390 92 -776 -35 -1197 -123 -406 -409 -1015 -652 -1387 -93 -142 -252
-358 -259 -351 -3 2 25 58 62 125 95 172 235 465 293 611 155 389 193 702 131
1070 -107 634 -506 1293 -1091 1802 -121 105 -362 288 -381 288 -5 0 19 -30
53 -67 409 -444 762 -1184 879 -1840 52 -288 70 -702 42 -958 -47 -436 -169
-832 -357 -1153 -202 -345 -497 -658 -820 -868 l-81 -52 -7 -118 c-27 -457
-187 -828 -490 -1142 -112 -117 -219 -208 -451 -387 -450 -348 -647 -561 -801
-867 -114 -227 -209 -597 -230 -896 -4 -62 -10 -98 -15 -90 -5 7 -9 32 -9 55
0 23 -7 95 -15 160 -38 291 -114 560 -215 762 -161 321 -354 529 -820 886
-213 163 -317 254 -440 382 -295 306 -446 653 -483 1112 l-11 144 -81 52
c-202 131 -441 349 -598 545 -320 402 -507 871 -573 1440 -25 217 -15 642 20
875 85 563 311 1146 624 1605 100 147 187 260 272 353 34 37 58 67 53 67 -4 0
-48 -29 -98 -65z"/>
<path d="M4220 8928 c0 -8 -7 -37 -15 -65 -15 -50 -15 -50 -77 -68 l-63 -18
60 -16 60 -16 21 -64 c12 -34 24 -59 26 -55 3 5 11 33 18 62 l12 53 59 16 c33
9 57 19 53 22 -3 3 -28 12 -57 21 -51 16 -52 16 -67 72 -15 56 -30 85 -30 56z"/>
<path d="M8310 8940 c-1 -3 -9 -32 -18 -65 l-17 -59 -65 -20 -65 -19 60 -16
c65 -17 76 -30 96 -111 l12 -45 17 63 c10 35 22 67 26 72 5 5 34 15 64 23 l55
14 -63 18 -62 18 -16 56 c-19 68 -22 77 -24 71z"/>
<path d="M6140 8378 c-81 -11 -227 -59 -288 -95 -227 -131 -359 -312 -423
-580 -30 -124 -23 -335 15 -473 40 -145 128 -314 252 -481 217 -293 224 -309
224 -483 0 -143 -36 -233 -125 -314 -96 -88 -199 -137 -471 -222 -193 -60
-281 -125 -346 -255 -48 -95 -59 -174 -57 -423 2 -246 3 -238 -81 -747 -22
-132 -42 -250 -45 -262 -4 -16 5 -34 31 -63 20 -22 38 -39 40 -38 5 6 103 597
128 774 23 160 25 202 19 350 -9 259 17 365 115 463 64 64 98 81 300 146 392
129 540 260 571 506 9 73 10 71 41 -66 46 -200 112 -372 184 -475 17 -24 34
-48 38 -54 11 -16 56 46 107 149 52 103 104 262 137 418 l19 88 16 -84 c47
-238 180 -353 555 -480 193 -66 233 -85 289 -142 52 -51 80 -103 102 -188 13
-52 15 -96 9 -268 -4 -154 -2 -239 9 -340 14 -119 112 -824 118 -841 1 -3 19
8 40 26 l39 33 -36 254 c-83 587 -81 563 -78 842 3 279 -3 330 -53 432 -28 58
-110 144 -172 181 -24 13 -118 50 -210 80 -308 101 -439 187 -506 331 -20 43
-22 64 -22 198 0 177 -3 169 132 355 223 307 261 373 317 541 45 136 60 243
53 388 -24 523 -470 893 -987 819z m306 -93 c154 -35 278 -107 392 -230 82
-88 156 -226 188 -350 25 -95 25 -323 0 -415 -48 -183 -118 -318 -275 -530
-43 -58 -110 -153 -149 -211 -99 -147 -201 -262 -255 -288 -126 -61 -213 2
-421 304 -57 83 -135 193 -174 245 -122 163 -189 296 -234 464 -28 107 -31
325 -5 431 23 92 104 256 161 325 126 152 313 249 526 274 53 6 177 -4 246
-19z"/>
<path d="M5603 7278 c15 -175 100 -322 242 -417 85 -56 171 -87 260 -92 l60
-4 -4 50 c-9 140 -116 333 -233 423 -92 70 -200 112 -286 112 l-45 0 6 -72z"/>
<path d="M6780 7327 c-167 -57 -284 -171 -359 -351 -29 -71 -55 -191 -45 -207
13 -21 171 15 264 60 171 82 299 285 300 474 l0 47 -47 0 c-27 0 -77 -11 -113
-23z"/>
<path d="M4351 7784 c-18 -81 -37 -161 -42 -178 l-9 -33 -168 -38 c-92 -21
-171 -42 -175 -45 -5 -4 70 -26 165 -50 95 -23 176 -46 179 -51 3 -5 23 -86
44 -179 22 -94 42 -170 45 -170 3 0 20 64 37 143 18 78 37 158 43 177 l10 36
176 43 c96 24 172 47 167 51 -4 4 -80 24 -168 44 -88 20 -165 42 -171 49 -11
11 -84 299 -84 331 0 9 -3 16 -7 16 -5 0 -23 -66 -42 -146z"/>
<path d="M8106 7764 c-22 -91 -45 -171 -50 -179 -6 -7 -81 -30 -166 -50 -85
-20 -163 -40 -173 -44 -13 -4 44 -22 162 -50 l180 -44 43 -179 c23 -98 45
-178 48 -178 3 0 23 80 45 177 l40 177 178 44 c98 25 175 47 172 50 -3 3 -83
24 -178 47 l-172 40 -40 177 c-22 98 -42 178 -45 178 -3 0 -23 -75 -44 -166z"/>
<path d="M3826 6615 c-12 -50 -34 -74 -78 -86 -41 -11 -42 -12 -18 -21 64 -25
75 -34 89 -78 l14 -45 14 35 c22 57 28 64 73 81 l42 16 -45 12 c-37 11 -48 19
-57 45 -29 76 -26 73 -34 41z"/>
<path d="M8691 6602 c-12 -44 -36 -66 -85 -78 l-29 -7 44 -16 c42 -16 54 -30
77 -91 9 -24 9 -24 22 15 17 54 26 63 74 76 l41 11 -44 17 c-46 17 -52 23 -74
81 l-14 35 -12 -43z"/>
<path d="M4866 6258 c-16 -55 -19 -58 -59 -68 -73 -19 -74 -22 -17 -39 54 -17
55 -18 76 -76 l21 -58 11 44 c15 61 29 75 87 92 28 8 43 17 35 20 -8 3 -34 10
-57 16 -39 11 -43 15 -61 69 l-19 57 -17 -57z"/>
<path d="M7636 6255 c-16 -51 -20 -55 -59 -66 -23 -6 -49 -13 -57 -16 -8 -3 7
-12 35 -20 63 -18 66 -22 86 -86 17 -54 18 -54 41 23 12 42 16 45 68 61 57 18
56 20 -16 39 -38 9 -42 14 -54 58 -7 26 -16 50 -20 55 -3 4 -14 -17 -24 -48z"/>
<path d="M6622 5465 c-24 -13 -132 -91 -240 -173 -224 -168 -321 -236 -329
-229 -8 9 36 90 80 148 64 85 88 149 71 193 -9 24 -28 19 -46 -11 -9 -16 -66
-95 -127 -176 -61 -81 -119 -165 -130 -185 -10 -20 -37 -102 -60 -182 -23 -79
-51 -159 -62 -176 -25 -41 -273 -282 -426 -414 -65 -56 -193 -159 -285 -228
l-168 -127 48 -48 c50 -52 206 -187 215 -187 6 0 53 49 440 461 168 179 321
339 341 355 19 16 77 46 128 68 51 21 140 66 198 101 58 34 186 103 286 153
180 91 234 127 234 157 0 28 -49 16 -182 -46 -135 -62 -188 -79 -188 -61 0 6
80 64 177 129 205 136 256 181 251 215 -5 37 -35 26 -175 -65 -166 -108 -242
-153 -273 -162 l-25 -7 25 27 c14 15 112 92 218 172 105 80 201 157 212 171
24 30 23 55 -3 60 -24 5 -71 -24 -275 -167 -178 -125 -217 -149 -229 -138 -10
11 32 51 192 184 172 143 185 156 185 189 0 31 -22 31 -78 -1z"/>
<path d="M5346 5193 c-9 -48 -28 -167 -42 -263 -14 -96 -43 -280 -63 -407 -21
-128 -35 -233 -33 -233 3 0 42 31 87 70 l83 70 32 102 c17 57 34 110 37 118 5
14 16 -5 44 -77 12 -31 19 -29 63 16 l38 39 -30 89 c-160 462 -193 558 -196
561 -2 2 -11 -37 -20 -85z"/>
<path d="M7095 5110 c-32 -96 -81 -240 -110 -320 -60 -168 -114 -355 -150
-525 -14 -66 -27 -130 -30 -141 -4 -18 2 -23 35 -32 l40 -10 10 42 c59 245
155 522 171 494 13 -23 88 -333 165 -683 37 -170 69 -312 71 -314 1 -2 18 7
37 20 32 21 35 28 31 59 -3 19 -14 105 -25 190 -21 167 -39 307 -70 547 -11
84 -38 294 -60 468 -22 174 -44 331 -48 348 -8 29 -14 16 -67 -143z"/>
<path d="M1660 4436 c0 -10 74 -193 120 -296 346 -777 955 -1475 1730 -1985
220 -144 295 -188 517 -299 482 -241 968 -398 1486 -481 84 -13 183 -27 221
-31 l69 -7 -7 29 c-11 47 -90 203 -145 286 -42 65 -55 78 -83 82 -779 128
-1448 386 -2129 822 -329 211 -586 420 -895 729 -343 343 -572 638 -813 1048
-56 95 -71 117 -71 103z"/>
<path d="M10810 4333 c-412 -703 -1002 -1319 -1696 -1769 -625 -406 -1333
-689 -2024 -809 -129 -22 -147 -28 -166 -51 -38 -47 -118 -187 -155 -274 -37
-84 -37 -85 -15 -88 13 -2 103 9 202 23 1181 171 2272 754 3058 1636 287 322
486 614 675 990 81 161 197 436 188 445 -2 2 -32 -44 -67 -103z"/>
<path d="M6150 4086 c-142 -30 -258 -91 -353 -184 -51 -51 -117 -138 -117
-155 0 -4 21 7 48 24 60 38 131 59 199 59 l53 0 -44 -54 c-90 -111 -145 -236
-186 -421 -33 -153 -32 -154 58 -250 94 -99 194 -227 246 -312 90 -150 184
-379 202 -490 4 -24 10 -43 14 -43 5 0 11 19 15 43 12 69 70 235 119 342 41
87 135 239 197 316 l21 26 -20 39 c-57 112 -74 284 -39 398 24 78 108 165 182
189 117 38 209 31 242 -19 25 -38 38 -14 38 69 -1 148 -91 241 -260 267 -64
10 -73 14 -104 51 -37 44 -90 75 -166 96 -74 20 -267 25 -345 9z m296 -195
c56 -26 60 -36 20 -60 -51 -32 -99 -28 -139 13 -19 19 -47 41 -63 50 -28 15
-27 15 56 15 62 1 96 -4 126 -18z"/>
</g>
</svg>
