<?xml version="1.0" standalone="no"?>
<!DOCTYPE svg PUBLIC "-//W3C//DTD SVG 20010904//EN"
 "http://www.w3.org/TR/2001/REC-SVG-20010904/DTD/svg10.dtd">
<svg version="1.0" xmlns="http://www.w3.org/2000/svg"
 width="1254.000000pt" height="1254.000000pt" viewBox="0 0 1254.000000 1254.000000"
 preserveAspectRatio="xMidYMid meet">
<metadata>
Created by potrace 1.16, written by Peter Selinger 2001-2019
</metadata>
<g transform="translate(0.000000,1254.000000) scale(0.100000,-0.100000)"
fill="#000000" stroke="none">
<path d="M6041 12439 c-1009 -48 -2053 -372 -2906 -902 -407 -253 -732 -513
-1091 -871 -557 -558 -955 -1122 -1279 -1816 -206 -443 -368 -961 -465 -1489
-62 -338 -89 -604 -97 -971 -16 -716 79 -1358 303 -2051 161 -498 341 -893
617 -1354 327 -547 751 -1047 1257 -1483 835 -718 1931 -1224 3005 -1386 357
-54 462 -61 890 -60 467 0 673 17 1057 89 1739 327 3295 1453 4157 3009 358
647 612 1366 731 2072 153 906 107 1798 -139 2714 -256 951 -689 1755 -1333
2475 -509 569 -1087 1020 -1758 1373 -399 209 -997 422 -1475 526 -474 102
-1009 148 -1474 125z m562 -99 c301 -19 742 -79 967 -132 240 -56 790 -235
1010 -329 492 -209 1018 -535 1475 -915 157 -130 527 -498 690 -684 207 -237
459 -586 624 -865 144 -241 318 -607 421 -880 389 -1034 512 -2094 364 -3125
-149 -1045 -573 -2074 -1195 -2900 -765 -1017 -1855 -1775 -3064 -2131 -834
-245 -1655 -299 -2520 -164 -976 152 -1949 577 -2744 1199 -385 301 -810 737
-1104 1134 -92 123 -282 411 -359 542 -491 838 -786 1772 -859 2725 -16 202
-15 706 0 890 37 436 96 773 203 1165 206 758 555 1464 1023 2075 768 1001
1743 1707 2887 2089 711 237 1496 347 2181 306z"/>
<path d="M6070 12213 c-633 -27 -1337 -178 -1930 -415 -213 -85 -608 -279
-785 -385 -653 -394 -1164 -844 -1657 -1461 -662 -828 -1097 -1872 -1232
-2957 -34 -269 -40 -389 -40 -735 0 -370 7 -481 50 -805 181 -1361 850 -2672
1835 -3595 341 -320 610 -523 999 -755 768 -458 1593 -727 2488 -811 213 -20
690 -23 897 -5 767 66 1520 281 2162 617 1249 654 2178 1657 2730 2949 243
568 395 1145 463 1758 76 687 34 1361 -126 2057 -181 781 -504 1506 -938 2105
-688 950 -1570 1640 -2638 2064 -130 51 -573 190 -743 232 -223 55 -656 116
-995 139 -132 9 -374 10 -540 3z m250 -376 c0 -7 -15 -20 -32 -28 l-33 -14 0
-257 c0 -224 -2 -258 -15 -258 -8 0 -98 96 -200 214 -102 118 -187 215 -190
215 -6 1 -1 -223 8 -314 8 -75 3 -70 81 -92 11 -3 11 -7 3 -15 -6 -6 -54 -13
-106 -16 -84 -4 -96 -3 -96 12 0 9 6 16 14 16 8 0 24 8 36 18 23 18 23 19 15
226 -6 185 -9 210 -26 227 -11 11 -30 19 -44 19 -14 0 -25 6 -25 14 0 12 65
26 127 26 16 0 62 -45 165 -162 79 -89 157 -177 173 -196 l30 -33 -3 162 c-2
90 -8 171 -13 181 -5 9 -25 20 -44 24 -47 8 -45 32 3 37 94 10 172 7 172 -6z
m533 -21 l222 -21 3 -83 c2 -73 1 -83 -14 -80 -9 2 -23 24 -32 53 -14 40 -24
54 -52 67 -43 22 -120 24 -120 5 0 -8 -11 -99 -25 -203 -34 -257 -34 -251 15
-264 24 -6 40 -17 40 -25 0 -18 -24 -18 -165 -2 -77 9 -100 15 -100 27 0 10
12 16 32 18 17 2 37 10 44 18 12 14 72 444 63 453 -10 10 -113 12 -132 2 -11
-6 -33 -31 -48 -56 -27 -42 -54 -59 -54 -34 0 6 10 44 22 85 21 74 22 75 51
68 16 -3 129 -16 250 -28z m-1405 -103 c28 -88 16 -103 -37 -45 -33 36 -44 42
-79 42 -47 0 -143 -18 -155 -30 -8 -7 18 -173 29 -191 4 -8 111 14 121 25 3 3
9 23 12 43 4 24 12 38 21 38 10 0 19 -27 31 -95 10 -52 18 -98 18 -102 2 -22
-30 -3 -48 28 -22 36 -22 36 -72 30 -67 -9 -80 -15 -75 -35 3 -9 10 -47 17
-86 19 -115 25 -119 149 -89 73 17 106 42 115 88 11 56 16 66 31 66 10 0 14
-16 16 -65 1 -36 2 -73 2 -82 1 -14 -34 -24 -209 -59 -115 -24 -218 -43 -227
-43 -28 -1 -21 28 7 35 14 3 30 14 34 23 11 20 -62 425 -80 448 -7 8 -25 13
-43 11 -22 -2 -31 1 -31 12 0 11 48 25 205 56 113 23 210 42 215 43 6 1 21
-29 33 -66z m-728 -107 c0 -7 -11 -18 -25 -24 -14 -6 -25 -19 -25 -29 0 -19
138 -391 153 -410 4 -7 25 -13 45 -15 20 -2 37 -7 37 -13 0 -11 -216 -95 -227
-88 -15 8 -8 24 17 35 14 6 28 21 31 33 3 14 -20 92 -59 201 -76 207 -69 215
-91 -95 -8 -112 -19 -208 -24 -213 -6 -6 -75 59 -177 166 -93 97 -170 175
-171 173 -3 -3 114 -334 127 -359 8 -15 19 -19 47 -16 68 6 44 -23 -48 -59
-100 -39 -129 -37 -82 7 18 16 32 36 32 44 0 13 -98 302 -128 378 -13 33 -29
42 -64 40 -56 -4 -30 26 48 56 l77 29 101 -106 c55 -58 126 -132 157 -164 l55
-59 17 228 c10 125 19 229 20 229 20 11 144 51 150 48 4 -2 7 -10 7 -17z
m3285 -43 c140 -73 195 -243 127 -388 -68 -143 -210 -207 -353 -160 -77 26
-152 103 -174 180 -44 150 37 331 168 379 59 22 179 16 232 -11z m889 -404
c12 -10 -44 -149 -61 -149 -9 0 -13 16 -13 60 0 72 -10 85 -109 134 l-69 35
-46 -84 c-25 -47 -46 -88 -46 -93 0 -10 86 -52 107 -52 9 0 27 9 39 21 12 12
27 18 33 14 14 -8 -77 -187 -93 -182 -7 2 -10 22 -8 50 4 44 2 47 -38 72 -23
14 -47 28 -54 31 -7 3 -32 -35 -61 -91 l-50 -96 35 -30 c26 -22 31 -32 22 -41
-8 -8 -36 2 -117 43 -110 57 -136 86 -66 74 34 -6 42 -3 55 17 37 56 196 365
196 380 0 9 -12 26 -26 37 -16 12 -24 27 -21 35 5 12 48 -6 194 -81 103 -53
192 -99 197 -104z m-5025 54 c59 -81 53 -108 -12 -59 -53 39 -72 41 -133 10
-30 -15 -54 -29 -54 -32 0 -2 48 -94 106 -204 l107 -200 49 6 c38 5 49 4 46
-6 -5 -14 -196 -127 -215 -128 -20 0 -15 28 6 40 41 21 35 43 -74 249 l-107
201 -28 -15 c-15 -8 -41 -26 -58 -40 -28 -23 -31 -33 -34 -87 -2 -34 -8 -63
-13 -65 -8 -2 -71 148 -63 151 22 8 171 89 282 153 77 45 144 82 148 82 4 1
25 -24 47 -56z m2821 -319 c711 -72 1404 -325 2018 -736 677 -453 1209 -1060
1580 -1803 259 -519 427 -1143 473 -1755 15 -198 6 -670 -15 -845 -99 -806
-350 -1484 -793 -2146 -283 -422 -635 -793 -1033 -1090 -667 -496 -1379 -776
-2225 -875 -212 -25 -701 -25 -910 0 -810 96 -1550 388 -2195 864 -356 263
-702 608 -973 968 -439 585 -745 1289 -861 1986 -53 317 -61 419 -61 813 0
394 7 489 61 805 151 893 607 1780 1258 2447 456 468 976 818 1561 1051 699
279 1422 387 2115 316z m-3479 -99 c65 -34 89 -128 48 -194 -11 -18 -19 -34
-17 -36 2 -1 53 -18 115 -38 116 -39 152 -44 183 -27 26 14 37 -6 15 -30 -9
-10 -35 -28 -58 -40 l-42 -22 -139 45 c-130 43 -140 45 -162 30 -13 -8 -24
-20 -24 -26 0 -19 110 -157 126 -157 8 0 24 5 35 10 26 15 44 3 27 -17 -19
-24 -165 -133 -177 -133 -17 0 -13 18 11 50 l21 29 -39 55 c-158 218 -219 299
-231 303 -7 3 -27 0 -44 -7 -21 -9 -33 -10 -41 -2 -7 7 21 34 91 89 167 129
231 154 302 118z m6399 -99 c25 -16 49 -44 62 -71 14 -29 29 -45 40 -45 27 0
22 -17 -24 -73 -24 -29 -44 -54 -45 -56 -1 -2 -9 -1 -17 2 -13 5 -13 11 0 52
27 78 2 137 -68 164 -53 20 -108 -23 -108 -83 0 -16 18 -69 41 -117 53 -116
57 -146 29 -203 -60 -125 -222 -126 -305 -3 -19 29 -35 57 -35 64 0 7 -9 13
-19 13 -11 0 -22 4 -25 8 -6 9 90 132 103 132 17 0 19 -13 5 -45 -64 -154 116
-289 192 -144 18 35 15 47 -34 154 -23 52 -37 99 -40 136 -4 52 -2 59 29 93
42 48 62 57 126 53 36 -3 64 -12 93 -31z m523 -488 c187 -193 177 -170 111
-262 -46 -62 -62 -51 -39 28 9 31 14 64 11 74 -3 10 -26 37 -50 61 l-43 42
-159 -166 c-87 -91 -160 -172 -162 -180 -2 -7 4 -25 13 -38 12 -19 13 -27 4
-33 -17 -10 -176 153 -162 167 8 8 18 6 36 -6 19 -12 30 -14 44 -6 10 5 88 80
173 165 l154 156 -39 40 c-51 52 -69 56 -133 31 -46 -18 -53 -19 -59 -6 -3 9
-4 17 -2 19 30 23 124 86 128 86 3 0 81 -77 174 -172z m-7391 -40 c190 -88
222 -99 243 -90 18 8 26 8 34 -2 8 -9 -10 -32 -68 -90 -52 -52 -81 -74 -86
-66 -4 7 -2 22 5 35 19 36 7 52 -65 87 l-65 32 -69 -68 -70 -69 34 -68 c19
-37 39 -70 45 -74 6 -4 22 1 37 10 18 12 28 14 36 6 17 -17 -122 -154 -140
-139 -11 9 -11 15 2 34 8 13 15 30 15 38 0 8 -46 115 -101 238 -56 123 -101
233 -100 244 0 12 5 33 11 48 12 32 -14 41 302 -106z m-523 -313 c107 -55 109
-174 4 -302 l-34 -41 72 -56 c39 -31 77 -56 84 -56 8 0 27 11 43 25 30 25 52
20 35 -8 -23 -39 -138 -187 -145 -187 -18 0 -19 29 -3 54 15 22 15 29 4 43
-17 20 -324 252 -345 260 -8 3 -25 -4 -39 -17 -15 -14 -30 -20 -41 -16 -18 7
-16 10 110 170 104 132 179 171 255 131z m8361 -187 c22 -13 40 -26 40 -29 0
-3 -54 -92 -119 -197 -176 -282 -174 -278 -162 -301 15 -26 14 -38 -2 -44 -16
-6 -137 152 -137 177 0 22 23 20 38 -4 7 -11 18 -20 26 -20 15 0 96 120 96
141 0 14 -108 149 -118 148 -4 0 -36 -13 -72 -28 -67 -27 -68 -28 -58 -85 6
-40 -21 -24 -71 38 -63 81 -70 120 -14 81 21 -14 39 -10 255 60 128 42 235 78
237 81 8 8 22 4 61 -18z m-8849 -398 c75 -38 73 -56 -3 -52 l-56 4 -40 -59
c-21 -32 -47 -72 -56 -90 -18 -37 -29 -26 93 -98 69 -41 65 -43 101 27 25 47
25 63 -1 89 -11 11 -18 27 -15 35 5 13 13 11 48 -11 24 -14 64 -37 91 -52 26
-14 47 -30 47 -35 0 -16 -31 -21 -57 -9 -37 17 -55 7 -86 -48 l-27 -49 27 -20
c73 -49 154 -93 164 -86 22 13 100 145 105 177 4 24 -1 42 -24 77 -29 42 -32
60 -11 60 11 0 112 -78 117 -90 2 -6 -216 -378 -234 -399 -2 -2 -10 -1 -18 2
-14 5 -14 10 -1 40 13 32 13 36 -8 54 -24 21 -331 206 -359 216 -12 4 -25 -3
-40 -23 -16 -21 -27 -27 -37 -21 -11 7 7 44 84 178 116 200 124 213 131 213 2
0 32 -14 65 -30z m9256 -192 c60 -106 116 -204 124 -216 13 -23 11 -26 -41
-73 -83 -74 -99 -66 -54 27 l26 53 -28 60 c-14 34 -29 61 -31 61 -9 0 -76 -38
-236 -132 -149 -89 -168 -103 -163 -122 19 -68 19 -68 0 -64 -18 3 -124 178
-124 204 0 19 29 18 36 -1 17 -44 37 -37 235 77 107 61 196 112 199 115 7 6
-28 66 -57 97 -23 25 -31 27 -82 24 -45 -2 -56 0 -59 13 -2 12 15 23 65 41 37
14 71 26 74 27 4 0 56 -86 116 -191z m317 -661 c38 -94 75 -186 82 -204 l13
-31 -60 -36 c-33 -20 -64 -36 -69 -36 -21 0 -18 20 10 55 16 20 32 45 35 56
12 36 -48 189 -74 189 -33 -1 -176 -69 -173 -82 2 -7 13 -35 24 -61 21 -47 22
-48 61 -45 71 5 56 -19 -37 -62 -48 -22 -91 -40 -96 -40 -19 0 -10 30 15 46
14 9 25 25 25 36 0 28 -33 118 -43 118 -13 0 -160 -62 -174 -73 -7 -5 -13 -20
-13 -32 0 -34 56 -158 78 -173 10 -7 45 -16 78 -20 82 -10 77 -28 -16 -58 -41
-13 -78 -24 -81 -24 -4 0 -32 66 -64 148 -32 81 -70 178 -86 215 -27 65 -30
87 -9 87 5 0 17 -13 27 -30 9 -16 23 -30 30 -30 17 0 394 150 412 164 8 7 11
23 8 47 -5 39 -2 49 17 49 6 0 42 -78 80 -173z m-9733 136 c134 -60 197 -193
156 -334 -25 -86 -125 -304 -139 -304 -9 0 -13 16 -13 49 l0 49 -195 83 c-107
46 -202 84 -212 84 -9 0 -25 -16 -37 -35 -13 -23 -25 -33 -35 -29 -17 7 -19 2
56 179 28 66 63 138 77 160 29 43 104 99 155 115 45 14 136 5 187 -17z m-466
-1375 c16 -51 33 -99 38 -105 7 -9 41 -13 110 -13 l100 0 -58 -46 c-33 -25
-70 -53 -84 -63 l-24 -18 37 -103 c20 -57 35 -104 34 -106 -2 -1 -30 18 -63
43 -33 24 -72 53 -86 64 l-27 19 -85 -65 c-46 -36 -87 -65 -90 -65 -3 0 10 48
30 106 19 58 34 106 32 108 -2 2 -40 29 -83 62 l-80 59 97 3 c112 3 102 -6
137 125 14 48 27 87 30 87 4 0 19 -42 35 -92z m10328 -14 l32 -99 104 -5 105
-5 -77 -58 c-42 -31 -77 -63 -77 -71 0 -7 14 -52 30 -101 17 -48 30 -91 28
-96 -2 -5 -41 21 -87 56 -82 64 -84 65 -106 47 -12 -9 -50 -39 -84 -66 -34
-26 -64 -46 -66 -44 -2 2 9 46 25 98 17 52 30 99 30 106 0 7 -37 39 -82 73
l-82 61 102 0 101 0 32 105 c18 58 34 103 36 101 2 -2 19 -48 36 -102z
m-10093 -1191 c1 -5 7 -57 14 -118 7 -60 11 -113 9 -117 -9 -17 -23 -6 -37 27
-18 41 -16 41 -177 20 -177 -23 -216 -33 -254 -66 -78 -69 -46 -210 55 -239
40 -11 365 24 387 42 7 6 13 26 13 45 0 27 4 34 17 31 14 -3 20 -22 31 -97 7
-51 11 -100 8 -107 -9 -23 -23 -16 -35 16 -5 17 -17 33 -26 36 -8 3 -75 -1
-149 -10 -190 -23 -255 -21 -297 7 -142 95 -127 335 24 391 23 9 113 25 200
36 87 10 162 22 167 25 6 4 13 24 16 46 4 23 12 39 20 39 8 0 14 -3 14 -7z
m10372 -91 c-10 -133 -17 -167 -34 -170 -12 -2 -17 5 -20 30 -3 32 -4 33 -48
32 -25 0 -64 -6 -86 -13 -46 -12 -47 -14 -60 -136 l-6 -60 66 -32 c37 -18 73
-33 82 -33 8 0 22 16 30 36 11 27 18 33 28 25 10 -8 11 -26 4 -73 -20 -147
-25 -155 -55 -90 -17 34 -35 46 -238 149 -207 104 -221 114 -237 150 -9 21
-14 41 -10 44 4 4 108 32 232 64 124 31 241 60 261 65 26 7 39 19 52 45 25 53
45 37 39 -33z m-465 -636 c12 -12 -19 -34 -56 -40 -76 -12 -141 -96 -141 -181
0 -122 123 -221 272 -218 74 1 133 33 174 95 53 78 52 154 -2 233 -18 27 -22
41 -14 49 17 17 42 -5 73 -65 26 -49 29 -61 25 -134 -9 -171 -114 -278 -273
-279 -124 0 -222 60 -276 169 -29 60 -31 71 -27 142 5 85 22 129 70 179 22 23
28 38 23 53 -3 11 -4 25 -1 29 5 8 142 -20 153 -32z m-9793 -84 l17 -68 -146
-214 c-154 -223 -166 -243 -144 -236 8 3 79 26 159 52 80 25 151 51 158 56 6
6 12 30 12 55 0 36 3 44 16 41 22 -4 78 -199 61 -210 -7 -5 -16 -1 -22 8 -39
63 -16 64 -283 -16 -219 -66 -273 -76 -271 -53 0 4 76 116 168 248 92 132 163
241 157 243 -16 4 -325 -95 -342 -109 -9 -7 -13 -26 -12 -48 2 -26 -1 -36 -11
-36 -19 0 -76 184 -61 199 7 7 19 -1 38 -23 l27 -32 80 21 c107 29 273 79 308
92 30 12 52 42 42 59 -9 14 2 39 18 39 8 0 20 -27 31 -68z m9458 -614 l3 -42
205 -82 c183 -73 229 -86 230 -65 1 18 36 50 48 42 10 -6 4 -31 -28 -112 -50
-124 -47 -119 -64 -113 -8 3 -13 20 -12 42 l1 37 -180 72 c-231 92 -242 94
-271 57 -16 -19 -27 -25 -33 -19 -7 7 1 42 25 105 19 52 37 101 39 108 2 6 11
12 19 12 10 0 16 -13 18 -42z m-9204 -192 c31 -80 40 -112 32 -120 -8 -8 -19
-2 -38 22 -15 18 -32 32 -39 32 -12 0 -321 -128 -372 -155 -30 -15 -32 -19
-26 -54 5 -30 3 -40 -10 -44 -10 -5 -18 1 -24 16 -5 12 -25 62 -45 110 -20 48
-34 92 -31 97 11 17 24 11 40 -20 9 -16 22 -30 30 -30 30 0 380 152 398 172
13 15 16 30 11 55 -6 31 -4 35 12 31 14 -2 31 -34 62 -112z m9131 -295 c46
-32 66 -69 66 -122 0 -47 1 -49 25 -45 14 3 57 8 95 11 100 9 146 23 177 52
37 35 46 12 19 -50 -29 -67 -50 -77 -202 -91 -118 -10 -133 -14 -150 -35 -11
-13 -19 -29 -19 -37 0 -13 147 -94 172 -94 6 0 24 12 39 26 53 50 50 16 -7
-97 -63 -127 -88 -140 -73 -39 4 22 -11 32 -186 126 -104 57 -197 103 -207
103 -9 1 -25 -11 -36 -26 -13 -17 -25 -24 -36 -20 -14 6 -6 27 53 144 41 81
83 152 103 171 56 53 114 61 167 23z m-8877 -235 c23 -39 60 -99 83 -132 l43
-62 -70 -57 c-51 -42 -73 -54 -81 -46 -8 8 -2 23 23 57 18 26 33 59 33 73 0
29 -49 121 -64 121 -5 0 -66 -32 -137 -72 -70 -39 -156 -88 -192 -108 -67 -37
-72 -45 -59 -105 2 -12 -2 -20 -11 -22 -16 -3 -120 173 -120 202 0 23 14 18
44 -15 26 -30 27 -30 59 -14 55 29 300 166 340 191 l38 24 -27 47 c-41 72 -48
77 -112 77 -31 0 -59 5 -61 10 -2 6 29 24 70 40 l74 31 43 -85 c24 -47 62
-117 84 -155z m8474 -341 c45 -25 62 -40 57 -51 -3 -9 -12 -12 -24 -9 -10 3
-36 7 -59 8 -45 1 -58 -10 -122 -107 -23 -35 -29 -52 -22 -63 5 -9 42 -38 82
-66 82 -56 79 -57 123 26 l20 38 -21 28 c-20 30 -26 51 -12 51 17 0 157 -107
157 -121 0 -14 -8 -14 -65 -2 -21 4 -31 -3 -58 -40 -17 -25 -32 -49 -32 -54 0
-8 142 -111 166 -120 13 -5 122 140 131 175 4 16 -5 39 -26 74 -29 46 -35 78
-14 78 5 0 35 -27 68 -60 l59 -60 -54 -77 c-224 -325 -255 -357 -225 -233 5
22 -3 32 -67 82 -123 95 -282 208 -295 208 -6 0 -20 -12 -31 -27 -13 -18 -24
-24 -36 -20 -10 4 -14 12 -10 19 19 35 239 358 242 358 3 0 33 -16 68 -35z
m-8216 -87 c24 -35 81 -111 127 -171 46 -59 83 -111 83 -115 0 -4 -23 -32 -50
-62 -35 -40 -52 -52 -60 -44 -8 8 -5 23 9 55 12 24 21 54 21 65 0 19 -104 174
-116 174 -12 0 -154 -116 -154 -125 0 -6 19 -33 43 -59 42 -48 44 -49 77 -38
22 8 37 9 44 2 5 -5 8 -11 5 -13 -144 -121 -217 -156 -154 -72 32 41 29 51
-28 118 l-32 37 -70 -55 c-110 -88 -106 -72 -39 -166 70 -97 86 -107 148 -89
44 12 66 8 66 -11 0 -12 -120 -91 -132 -87 -5 2 -71 86 -147 188 -103 138
-136 188 -128 198 8 10 17 6 43 -19 l33 -32 157 119 c86 65 170 131 186 146
28 26 29 28 13 58 -16 31 -14 60 3 60 4 0 28 -28 52 -62z m7795 -418 c3 -5 -2
-23 -11 -39 -23 -40 -19 -45 162 -218 l149 -141 29 15 c19 10 31 12 38 5 7 -7
-15 -38 -68 -96 -44 -47 -82 -86 -86 -86 -16 0 -18 23 -4 45 9 13 16 32 16 41
0 16 -266 294 -281 294 -4 0 13 -48 38 -107 64 -154 133 -340 133 -358 0 -8
-6 -15 -12 -15 -7 1 -110 38 -228 84 -118 46 -217 82 -219 80 -9 -8 273 -274
289 -274 9 0 25 6 36 14 14 11 22 11 32 3 10 -8 -2 -25 -59 -79 -40 -37 -76
-68 -80 -68 -16 0 -18 18 -4 36 33 43 21 61 -137 221 -84 84 -159 153 -168
153 -8 0 -26 -7 -38 -16 -20 -14 -23 -14 -29 2 -9 24 104 126 132 118 11 -4
106 -41 210 -84 105 -43 191 -77 193 -75 4 3 -66 177 -122 304 -25 57 -46 108
-46 114 0 13 109 137 120 137 5 0 12 -4 15 -10z m-7203 -300 c105 -124 88
-292 -40 -397 -130 -106 -258 -91 -407 48 -104 98 -170 178 -157 191 9 9 18 6
35 -10 13 -12 28 -22 33 -22 13 0 324 314 324 326 0 5 -9 22 -20 39 -14 22
-16 32 -8 42 9 11 31 -5 107 -79 52 -51 112 -113 133 -138z m6549 -541 c90
-61 193 -130 229 -155 62 -41 67 -43 98 -32 22 9 35 9 42 2 7 -7 -14 -30 -67
-75 -121 -99 -112 -94 -119 -75 -4 9 1 25 10 35 27 30 18 48 -50 97 l-65 47
-47 -33 c-26 -18 -59 -44 -74 -58 l-26 -24 20 -61 c27 -80 34 -88 76 -85 49 4
48 -12 -1 -48 -23 -16 -56 -41 -74 -53 -38 -29 -61 -20 -39 15 9 13 16 35 16
50 0 15 -32 126 -72 248 -39 121 -70 228 -69 236 6 30 30 80 39 80 5 0 83 -50
173 -111z m-5798 -65 c42 -21 75 -52 93 -86 8 -16 21 -28 29 -28 28 0 24 -18
-16 -80 -32 -49 -42 -60 -53 -50 -11 8 -12 19 -4 47 31 113 -83 213 -157 138
-40 -39 -33 -81 31 -203 49 -93 55 -112 51 -149 -9 -87 -97 -152 -188 -140
-52 7 -115 50 -142 99 -15 27 -27 37 -39 34 -33 -8 -30 15 13 90 44 76 66 90
62 38 -8 -104 -6 -122 15 -156 39 -64 107 -73 158 -23 40 40 33 90 -27 201
-46 86 -51 100 -47 143 3 27 14 62 26 78 42 59 130 80 195 47z m372 -244 c12
-19 349 -183 380 -184 35 -2 36 -12 8 -114 -12 -47 -20 -62 -32 -60 -12 2 -17
17 -19 58 -4 64 -17 82 -85 116 l-48 25 -33 -73 c-19 -40 -63 -135 -100 -212
l-66 -138 37 -34 c25 -23 34 -37 27 -44 -7 -7 -44 5 -117 40 -58 28 -108 54
-111 58 -12 19 11 33 37 23 20 -8 30 -7 41 4 12 13 206 399 206 411 0 10 -93
44 -119 44 -15 0 -46 -14 -70 -31 -66 -49 -73 -25 -15 54 48 64 66 77 79 57z
m4615 -122 c27 -50 30 -59 16 -64 -10 -4 -29 6 -51 25 -46 40 -77 40 -166 -4
-40 -19 -74 -37 -76 -39 -4 -3 73 -175 82 -184 6 -7 65 18 98 41 25 17 28 25
25 60 -5 70 18 51 61 -50 28 -67 38 -100 31 -107 -8 -8 -21 1 -43 28 l-32 38
-58 -28 c-31 -16 -57 -31 -57 -35 0 -4 18 -46 41 -93 42 -88 62 -106 98 -87
28 16 51 13 51 -5 0 -15 -159 -96 -216 -110 -32 -8 -32 12 1 42 14 13 25 27
25 31 -1 4 -42 98 -94 208 l-92 200 -45 0 c-28 0 -44 4 -44 12 0 7 88 55 195
106 144 70 198 91 206 83 7 -6 26 -37 44 -68z m-3786 -275 c3 -32 8 -158 12
-281 l7 -223 31 -24 c54 -42 23 -48 -94 -17 -74 20 -106 33 -108 44 -2 12 6
17 30 20 l33 3 3 86 3 85 -91 29 c-61 20 -94 26 -98 19 -4 -6 -25 -37 -47 -69
l-40 -57 29 -24 c16 -14 26 -31 22 -39 -4 -11 -21 -8 -88 18 -88 35 -110 62
-52 62 18 1 38 6 45 12 8 7 79 99 159 207 86 115 153 196 165 199 11 2 32 5
47 6 25 1 26 -2 32 -56z m3035 21 c65 -19 140 -85 171 -151 66 -140 31 -301
-82 -383 -43 -32 -123 -60 -168 -60 -116 0 -229 92 -270 219 -21 67 -22 80
-12 139 19 113 89 197 194 233 66 23 100 23 167 3z m-2454 -129 c110 -20 211
-39 224 -41 22 -5 23 -8 17 -51 -3 -25 -6 -63 -6 -84 0 -59 -24 -49 -46 18
-21 65 -55 92 -119 96 l-39 2 -44 -218 c-24 -121 -41 -225 -38 -233 3 -8 22
-22 41 -30 38 -16 39 -34 1 -34 -25 0 -190 27 -219 36 -29 9 -13 29 28 34 21
3 41 12 46 20 4 8 28 111 54 229 33 156 43 216 34 221 -6 4 -31 10 -56 14 -65
9 -94 -9 -148 -92 -1 -1 -9 0 -18 4 -14 5 -14 11 4 56 36 92 48 109 67 99 10
-5 108 -26 217 -46z m1369 -70 c29 -10 43 -11 57 -2 10 6 20 9 22 7 3 -3 8
-40 12 -82 5 -63 4 -78 -7 -78 -7 0 -22 16 -32 34 -30 57 -60 78 -115 84 -43
4 -53 1 -75 -21 -32 -32 -34 -74 -5 -111 13 -16 65 -48 123 -75 109 -51 151
-89 161 -145 10 -53 -11 -110 -55 -149 -64 -59 -155 -71 -232 -31 -28 15 -31
14 -45 -6 -8 -12 -19 -18 -23 -13 -4 4 -11 47 -15 96 -6 74 -5 87 8 87 8 0 26
-19 40 -42 40 -68 70 -90 126 -96 46 -4 53 -2 81 26 67 67 21 152 -109 201
-136 51 -190 144 -142 240 39 76 134 108 225 76z m-612 -14 c53 -1 99 -4 102
-9 2 -4 8 -40 11 -80 7 -63 6 -72 -9 -72 -10 0 -24 17 -35 43 -27 63 -41 70
-140 75 l-88 4 -6 -77 c-4 -43 -7 -91 -7 -107 l0 -29 68 3 c67 3 67 3 78 38 7
20 19 37 29 39 16 3 17 -2 11 -44 -3 -26 -6 -77 -6 -112 0 -55 -2 -64 -17 -61
-10 2 -20 17 -24 36 -9 44 -11 46 -78 52 l-59 6 -6 -51 c-9 -75 -7 -163 3
-170 6 -3 45 -8 88 -12 99 -7 134 8 165 72 22 46 48 60 48 27 0 -27 -22 -136
-29 -144 -6 -7 -357 8 -418 18 -39 6 -46 34 -9 34 43 0 56 24 57 103 0 40 4
137 8 217 8 137 7 146 -12 163 -10 9 -28 17 -38 17 -17 0 -26 20 -15 31 2 2
55 1 118 -3 62 -3 157 -7 210 -7z"/>
<path d="M7825 11521 c-67 -40 -117 -124 -136 -227 -18 -99 18 -192 92 -229
36 -19 102 -19 138 -1 97 51 172 231 142 343 -13 49 -51 97 -92 118 -39 21
-108 19 -144 -4z"/>
<path d="M5971 10434 c-54 -27 -90 -70 -112 -131 l-11 -33 -46 28 c-102 59
-231 24 -296 -81 -21 -34 -29 -61 -30 -96 l-1 -50 -61 6 c-37 3 -76 1 -99 -7
-50 -16 -114 -75 -136 -125 -22 -48 -24 -130 -5 -167 14 -26 14 -28 -6 -28
-73 0 -167 -64 -199 -134 -33 -74 -16 -193 34 -235 23 -19 21 -28 -8 -35 -35
-9 -93 -63 -117 -109 -27 -54 -27 -140 1 -194 11 -23 39 -57 62 -76 l41 -36
-32 -33 c-44 -43 -60 -85 -60 -155 0 -104 70 -195 162 -209 21 -4 38 -7 38 -8
0 0 -11 -23 -25 -50 -44 -87 -29 -175 44 -247 51 -51 110 -74 171 -66 l35 4 0
-81 c0 -73 3 -87 27 -124 41 -61 108 -97 183 -97 36 0 73 7 93 17 l32 16 0
-29 c0 -69 54 -147 125 -180 44 -20 137 -25 179 -9 14 5 43 26 65 46 35 31 41
33 41 17 0 -32 56 -101 102 -125 30 -15 61 -22 104 -22 80 -1 147 38 185 107
l25 47 24 -25 c100 -106 293 -76 361 57 10 21 19 52 19 71 l0 34 57 -19 c158
-54 307 69 290 237 l-5 50 50 -4 c99 -7 192 56 224 151 21 65 10 134 -33 208
-2 3 17 11 41 18 25 6 62 26 82 44 97 86 100 251 6 330 l-30 25 46 34 c76 57
107 146 82 238 -13 51 -76 123 -123 142 -17 7 -34 14 -36 15 -1 2 7 13 19 26
73 76 65 221 -16 301 -37 37 -72 55 -123 63 -37 6 -41 9 -34 28 5 11 8 53 8
93 0 63 -3 76 -30 115 -17 24 -53 55 -80 71 -43 24 -59 27 -110 24 -33 -2 -67
-7 -76 -11 -12 -5 -15 2 -16 43 -2 170 -182 271 -330 186 l-43 -24 -12 42
c-47 157 -281 199 -387 70 l-29 -36 -34 38 c-67 78 -171 96 -267 49z m369
-389 c67 -49 168 -52 245 -6 20 12 38 21 40 21 2 0 6 -14 10 -31 9 -40 68
-105 119 -131 33 -17 53 -20 113 -16 l73 5 0 -46 c1 -113 98 -211 211 -211 26
0 27 0 13 -37 -16 -47 -17 -72 -3 -128 14 -55 67 -118 119 -141 40 -18 40 -18
21 -38 -35 -39 -51 -84 -51 -146 0 -70 16 -108 68 -162 20 -21 31 -38 24 -38
-21 0 -85 -64 -103 -105 -25 -55 -25 -149 1 -200 11 -21 19 -39 17 -40 -1 -1
-24 -9 -50 -19 -102 -38 -152 -114 -145 -221 l4 -63 -61 0 c-69 1 -118 -17
-159 -58 -34 -34 -65 -98 -66 -135 l0 -26 -57 20 c-50 16 -65 17 -107 8 -69
-16 -112 -45 -142 -97 l-27 -45 -26 24 c-87 82 -223 83 -301 3 l-34 -34 -19
39 c-49 99 -173 146 -274 104 -19 -8 -36 -15 -37 -15 0 0 -2 16 -4 36 -7 103
-101 186 -210 188 l-53 1 6 45 c7 55 -13 128 -49 175 -14 18 -52 46 -83 61
-32 15 -59 28 -61 29 -1 1 6 17 15 36 44 84 10 220 -67 274 l-40 27 25 19 c13
11 36 44 51 75 36 74 31 156 -14 220 -30 42 -30 42 -9 48 34 8 96 64 116 105
35 68 36 119 6 194 -6 13 -2 17 17 17 93 0 188 80 208 174 6 29 8 61 4 70 -6
16 -3 17 26 11 122 -27 249 41 275 146 l7 27 46 -27 c90 -50 215 -26 279 53
l27 35 16 -25 c9 -13 32 -35 50 -49z"/>
<path d="M6158 9914 c-32 -7 -76 -23 -99 -35 -50 -25 -131 -99 -159 -144 -18
-30 -25 -33 -84 -37 -256 -21 -427 -343 -313 -591 l24 -52 -23 -35 c-27 -41
-54 -138 -54 -195 1 -221 180 -430 386 -451 56 -6 62 -9 79 -40 47 -88 168
-166 286 -185 166 -27 362 62 434 195 17 32 21 34 90 39 94 7 180 49 255 126
138 141 178 345 98 500 l-34 67 19 43 c28 65 34 186 12 266 -46 173 -193 302
-352 313 -69 4 -74 6 -93 37 -28 45 -109 119 -158 144 -96 49 -207 62 -314 35z
m135 -175 l13 -44 52 0 c29 1 52 -2 52 -5 0 -3 -18 -18 -39 -33 l-38 -29 13
-46 c8 -25 12 -47 10 -49 -2 -3 -23 8 -45 23 l-41 27 -32 -25 c-56 -42 -57
-41 -41 14 l16 52 -37 32 c-38 33 -43 42 -23 41 73 -2 85 3 98 41 21 66 23 66
42 1z m182 -289 l17 -50 49 0 c27 0 49 -3 49 -7 0 -5 -16 -19 -36 -33 -36 -26
-37 -30 -18 -105 l7 -28 -39 27 c-48 32 -49 32 -91 0 -19 -14 -36 -24 -39 -22
-2 3 2 26 10 51 l14 47 -41 32 -41 33 54 5 54 5 15 48 c8 26 16 47 17 47 1 0
10 -22 19 -50z m355 -5 l13 -45 56 0 56 0 -43 -38 -43 -37 15 -47 c8 -27 12
-48 9 -48 -2 0 -21 11 -41 25 -45 31 -47 31 -89 -1 -19 -14 -36 -24 -39 -22
-2 3 3 25 11 49 l16 44 -42 37 -43 37 54 3 54 3 15 47 c8 26 17 45 21 43 4 -3
13 -25 20 -50z m-1050 -17 c9 -26 14 -28 62 -28 l53 -1 -41 -35 -42 -35 14
-46 c8 -25 13 -48 11 -49 -2 -2 -20 8 -40 21 -20 14 -40 25 -44 25 -5 0 -26
-12 -47 -26 l-39 -27 7 28 c20 79 20 80 -18 106 -20 13 -36 27 -36 32 0 4 22
7 49 7 48 0 50 1 62 38 21 65 21 65 49 -10z m340 17 l13 -45 56 0 56 0 -43
-38 -42 -37 14 -47 c8 -27 13 -48 10 -48 -2 0 -22 12 -44 26 l-40 27 -40 -27
c-22 -14 -41 -26 -44 -26 -2 0 3 22 11 50 l14 50 -28 25 c-15 13 -31 25 -35
25 -5 0 -8 5 -8 10 0 6 22 10 49 10 l48 0 13 45 c7 25 16 45 20 45 4 0 13 -20
20 -45z m-178 -307 c13 -42 14 -43 67 -48 l53 -5 -40 -33 -41 -32 14 -47 c8
-26 12 -49 10 -51 -2 -3 -20 7 -39 22 -43 32 -49 32 -90 1 -18 -14 -36 -25
-39 -25 -3 0 1 21 10 47 l16 46 -36 34 c-21 18 -37 35 -37 38 0 3 22 5 49 5
l48 0 13 45 c7 25 16 45 20 45 5 0 14 -19 22 -42z m358 -20 c9 -26 14 -28 60
-28 27 0 50 -3 50 -7 0 -5 -18 -20 -39 -35 l-39 -28 14 -47 c8 -25 13 -48 11
-49 -2 -2 -20 8 -42 23 -41 28 -36 28 -104 -16 -24 -15 -24 -15 -17 13 19 76
18 80 -18 106 -20 14 -36 28 -36 33 0 4 22 7 49 7 48 0 50 1 62 38 21 65 21
65 49 -10z m360 0 c9 -26 14 -28 62 -28 l53 -1 -41 -37 c-33 -29 -40 -41 -34
-57 4 -11 10 -33 14 -49 7 -28 7 -29 -16 -14 -70 45 -63 45 -112 9 -26 -18
-46 -30 -46 -28 0 3 7 24 15 47 20 58 19 61 -20 90 -19 14 -35 28 -35 33 0 4
22 7 49 7 48 0 50 1 62 38 21 65 21 65 49 -10z m-180 -285 c13 -42 13 -42 67
-45 l55 -3 -41 -30 c-44 -31 -44 -34 -25 -110 l7 -27 -42 28 -42 27 -44 -31
c-50 -35 -52 -33 -29 29 l15 44 -42 37 -43 37 54 3 54 3 15 48 c16 53 21 51
41 -10z m423 -43 l52 -1 -39 -34 -39 -35 10 -47 c6 -27 10 -50 8 -51 -2 -2
-19 8 -38 22 -42 32 -45 32 -87 1 -18 -14 -35 -23 -37 -21 -2 2 1 25 8 51 l12
47 -39 34 -39 33 52 1 51 0 18 52 17 52 19 -52 19 -52 52 0z m-1133 45 l13
-45 56 0 c46 -1 53 -3 40 -13 -8 -7 -28 -22 -43 -34 l-28 -22 15 -51 c8 -27
12 -50 9 -50 -3 0 -20 11 -38 25 -18 14 -38 25 -44 25 -6 0 -26 -11 -44 -25
-18 -14 -36 -25 -39 -25 -3 0 1 21 9 48 l14 47 -42 37 -43 38 56 0 56 0 13 45
c7 25 16 45 20 45 4 0 13 -20 20 -45z m351 0 l13 -45 54 0 55 0 -42 -37 -42
-38 15 -47 c8 -27 12 -48 8 -48 -3 0 -20 11 -38 25 -18 14 -38 25 -44 25 -6 0
-26 -11 -44 -25 -18 -14 -35 -25 -38 -25 -3 0 1 23 9 50 l15 51 -28 22 c-15
12 -35 27 -43 34 -13 10 -6 12 40 13 l57 0 13 45 c7 25 16 45 20 45 4 0 13
-20 20 -45z m238 -355 l53 -5 -40 -33 -41 -32 14 -47 c8 -26 13 -48 11 -50 -1
-2 -20 10 -42 25 l-39 29 -42 -29 c-24 -16 -43 -26 -43 -23 0 3 5 26 11 51 12
45 11 45 -27 79 l-39 34 52 1 51 0 18 53 17 52 17 -50 17 -50 52 -5z"/>
<path d="M3812 9023 c-45 -9 -88 -64 -111 -141 -12 -40 -36 -103 -53 -139 -41
-89 -35 -119 41 -193 63 -62 208 -163 221 -155 5 3 18 36 31 73 28 86 46 122
62 122 7 0 50 -25 96 -55 105 -69 169 -83 195 -43 8 13 6 22 -9 38 -29 32 -77
53 -200 89 -197 57 -335 157 -335 241 0 35 29 79 56 86 18 5 40 -3 84 -30 85
-52 124 -41 106 29 -11 44 -120 90 -184 78z"/>
<path d="M8598 9020 c-78 -23 -136 -91 -108 -125 20 -24 53 -18 106 20 49 35
68 41 99 29 18 -7 45 -55 45 -81 0 -82 -158 -193 -351 -249 -52 -14 -115 -37
-141 -50 -83 -42 -86 -94 -6 -94 45 0 83 17 155 71 83 62 89 60 131 -51 19
-52 37 -97 38 -99 5 -6 90 47 166 104 120 90 151 151 114 223 -7 15 -26 65
-41 112 -43 130 -60 159 -108 181 -46 20 -58 21 -99 9z"/>
<path d="M8630 8880 c-19 -16 -45 -30 -57 -30 -12 0 -24 -4 -27 -8 -8 -13 26
-112 38 -112 6 0 36 22 65 49 l55 48 -12 42 c-7 22 -16 41 -20 41 -4 0 -23
-14 -42 -30z"/>
<path d="M8413 8518 c-26 -22 -69 -50 -96 -61 -28 -12 -46 -25 -43 -32 3 -8
-54 -39 -155 -85 -381 -174 -672 -362 -952 -614 -107 -97 -284 -288 -307 -332
-21 -38 -4 -66 84 -137 46 -37 101 -90 122 -117 21 -28 41 -50 44 -50 3 1 16
24 29 52 36 76 130 196 227 287 230 218 477 378 904 587 296 145 320 165 307
252 -7 48 -97 292 -107 292 -5 0 -30 -19 -57 -42z m-418 -420 c17 -33 39 -64
50 -68 18 -6 16 -9 -14 -24 -18 -10 -30 -13 -27 -7 4 5 -7 32 -24 58 l-32 48
6 -67 c3 -38 2 -68 -3 -68 -4 0 -29 16 -54 35 -25 19 -48 35 -51 35 -8 0 35
-74 51 -87 12 -10 12 -13 -5 -22 -14 -8 -19 -7 -19 5 0 24 -56 123 -72 127
-11 3 -8 8 12 17 25 12 30 11 55 -11 15 -14 38 -33 51 -44 l24 -20 -7 64 c-6
59 3 92 23 91 3 -1 20 -28 36 -62z"/>
<path d="M3946 8414 c-26 -70 -46 -141 -46 -163 0 -70 28 -91 305 -226 460
-223 684 -370 929 -605 114 -111 180 -190 229 -278 l35 -64 21 30 c12 17 61
62 109 101 99 81 137 129 129 164 -8 29 -157 197 -271 304 -317 300 -675 528
-1103 703 -222 91 -221 91 -257 126 l-34 33 -46 -125z m1278 -721 c10 -25 -4
-53 -26 -53 -14 0 -18 -5 -14 -16 9 -24 -12 -54 -39 -54 -13 0 -40 13 -58 30
l-34 29 49 53 c26 29 48 58 48 66 0 16 65 -32 74 -55z"/>
<path d="M2774 8419 c-12 -20 122 -135 283 -242 208 -138 605 -377 820 -493
203 -110 397 -219 509 -286 78 -46 82 -50 87 -90 8 -57 76 -153 191 -267 l95
-94 -20 -25 c-22 -29 -25 -97 -5 -152 12 -32 11 -37 -20 -77 -18 -24 -38 -60
-44 -81 -13 -47 -13 -127 0 -171 7 -26 6 -48 -5 -85 -8 -27 -15 -69 -15 -92 0
-61 36 -167 73 -216 18 -24 39 -65 47 -92 29 -104 153 -233 284 -295 92 -44
143 -58 245 -67 l71 -7 0 125 0 125 -80 6 c-157 10 -277 98 -359 259 -72 143
-89 298 -43 401 10 23 51 80 90 126 124 146 135 194 73 316 -131 258 -532 641
-996 952 -434 290 -761 452 -1040 513 -99 22 -230 27 -241 9z"/>
<path d="M9590 8423 c-70 -12 -255 -66 -335 -98 -49 -20 -157 -71 -240 -114
-643 -332 -1270 -848 -1500 -1235 -75 -127 -68 -191 32 -310 124 -147 143
-187 143 -300 0 -147 -56 -288 -154 -393 -77 -83 -155 -122 -260 -130 l-76 -6
0 -123 0 -124 34 0 c66 0 185 29 258 63 137 64 254 181 284 287 9 30 31 80 50
110 64 105 85 208 61 299 -12 43 -13 67 -4 117 14 83 -1 163 -44 223 -30 43
-31 46 -18 85 19 56 15 113 -9 144 l-20 27 113 115 c118 121 175 204 175 256
0 29 8 35 113 96 61 36 229 130 372 209 256 140 343 191 660 384 285 173 459
297 524 371 17 19 29 39 26 45 -6 9 -135 10 -185 2z"/>
<path d="M3107 8000 c-42 -13 -57 -29 -57 -62 0 -66 171 -188 351 -252 142
-50 149 -51 149 -21 0 34 39 57 112 64 l61 6 -231 138 -231 137 -63 -1 c-35 0
-76 -5 -91 -9z"/>
<path d="M9057 7870 c-126 -76 -230 -140 -232 -142 -2 -2 24 -4 57 -5 69 -1
114 -26 112 -62 0 -11 3 -21 8 -21 23 0 212 67 268 95 142 72 239 166 226 219
-8 33 -71 56 -149 55 -62 -1 -64 -2 -290 -139z"/>
<path d="M3598 7690 c-84 -52 169 -235 502 -364 172 -66 385 -143 388 -141 2
2 -8 26 -22 54 -14 28 -26 59 -26 70 0 11 -12 28 -27 39 -44 31 -419 243 -525
296 -88 45 -101 49 -184 53 -54 2 -96 0 -106 -7z"/>
<path d="M8790 7686 c-30 -6 -98 -33 -150 -60 -99 -51 -497 -272 -516 -288 -6
-4 -14 -26 -18 -47 -3 -21 -17 -55 -31 -76 l-26 -37 28 6 c15 4 107 37 203 73
323 121 624 287 674 372 l20 34 -23 18 c-27 22 -78 23 -161 5z"/>
<path d="M3213 7661 c-43 -11 -83 -38 -83 -55 0 -21 46 -73 96 -107 69 -47
176 -88 334 -125 80 -19 166 -40 192 -46 36 -9 57 -8 86 0 22 7 64 12 93 12
l54 1 -90 45 c-126 64 -201 110 -270 169 -51 43 -75 55 -155 79 -102 29 -206
40 -257 27z"/>
<path d="M9094 7637 c-95 -29 -120 -41 -180 -89 -78 -62 -151 -107 -271 -167
-46 -23 -83 -43 -83 -45 0 -2 21 -1 48 1 27 3 65 -1 90 -10 41 -14 49 -13 255
37 175 43 228 61 304 100 95 49 167 113 161 144 -5 27 -70 53 -145 58 -57 4
-86 -1 -179 -29z"/>
<path d="M3430 7351 c-52 -11 -118 -48 -125 -70 -8 -27 5 -50 56 -96 77 -70
110 -80 483 -150 76 -14 146 -23 155 -19 9 3 57 10 106 13 58 5 83 10 70 15
-218 82 -325 144 -360 209 -20 36 -21 37 -150 66 -160 37 -191 41 -235 32z"/>
<path d="M6150 7354 c-85 -13 -134 -29 -160 -51 -17 -13 -30 -31 -30 -38 0 -8
-20 -14 -58 -17 -32 -3 -81 -16 -110 -28 -51 -22 -122 -88 -122 -113 0 -6 -17
-26 -37 -44 l-38 -31 0 -139 c0 -76 -4 -144 -9 -151 -6 -10 -18 -3 -51 30 -35
36 -43 52 -49 97 -12 93 -36 125 -120 166 -41 20 -96 54 -123 76 -26 22 -59
42 -71 46 -57 14 -74 -68 -28 -137 14 -22 52 -58 83 -82 74 -54 80 -62 93
-128 17 -83 19 -89 52 -125 41 -47 82 -54 144 -22 27 13 60 28 74 32 55 17
110 48 125 72 22 33 31 218 9 188 -8 -10 -14 -25 -14 -32 0 -22 -15 -15 -33
16 -20 35 -22 54 -2 28 13 -18 14 -17 29 12 40 76 164 87 336 28 57 -20 107
-34 109 -31 7 7 -70 83 -91 90 -16 5 -27 34 -12 34 20 0 98 -68 119 -104 42
-71 35 -79 -37 -47 -35 16 -75 31 -91 35 -26 6 -27 5 -21 -21 4 -16 7 -28 8
-29 1 0 22 -13 48 -27 87 -50 115 -121 80 -198 -11 -24 -53 -82 -93 -129 -133
-155 -196 -280 -170 -336 12 -28 22 -29 59 -10 39 20 72 59 136 160 32 48 59
86 62 84 2 -3 -8 -31 -22 -64 -30 -68 -42 -160 -25 -192 18 -34 54 -28 91 15
29 32 55 82 104 197 11 26 12 20 12 -55 -1 -70 3 -92 24 -134 14 -28 33 -51
43 -53 45 -9 94 78 104 182 6 65 23 83 23 24 0 -52 30 -144 59 -179 55 -66
101 -3 109 148 4 95 14 112 27 46 19 -100 89 -193 146 -193 41 0 46 33 21 138
-36 150 -42 226 -41 475 l1 242 31 26 31 26 -29 26 c-40 36 -205 120 -284 146
-114 37 -342 67 -421 55z"/>
<path d="M9045 7354 c-11 -3 -82 -19 -158 -36 -124 -29 -140 -35 -152 -58 -32
-62 -164 -146 -315 -201 l-65 -24 85 -5 c47 -3 95 -11 106 -18 12 -6 24 -9 26
-7 6 7 161 39 313 65 154 27 202 43 273 90 91 61 112 118 57 154 -22 14 -130
48 -145 45 -3 -1 -14 -3 -25 -5z"/>
<path d="M3873 7313 c-12 -2 -27 -10 -33 -18 -38 -46 124 -150 349 -225 116
-39 484 -140 509 -140 26 0 6 29 -77 115 l-84 88 -190 69 c-105 38 -222 78
-261 88 -78 19 -178 31 -213 23z"/>
<path d="M8500 7294 c-80 -22 -228 -70 -365 -121 -120 -44 -120 -44 -212 -135
-122 -122 -117 -127 73 -77 399 105 590 181 684 275 29 28 33 37 24 52 -15 23
-128 26 -204 6z"/>
<path d="M7177 7158 c-20 -35 -37 -71 -37 -80 0 -30 36 -21 85 22 59 51 81 52
32 2 -20 -21 -37 -40 -37 -44 0 -3 14 -11 31 -18 29 -12 32 -11 70 26 24 24
39 32 39 23 0 -22 -17 -40 -86 -92 -79 -60 -162 -151 -188 -207 -19 -40 -21
-61 -19 -200 3 -159 -2 -220 -16 -220 -5 0 -39 48 -75 108 -37 59 -80 123 -97
142 l-29 35 6 -60 c8 -82 29 -167 54 -216 26 -49 79 -76 169 -85 102 -11 136
32 120 151 -14 102 9 182 66 235 15 14 41 45 56 69 24 37 29 56 29 106 0 49 7
75 35 134 19 40 35 84 35 97 0 37 -39 70 -93 78 -27 4 -59 18 -76 32 -16 13
-31 24 -33 24 -2 0 -21 -28 -41 -62z"/>
<path d="M3422 7042 c-61 -22 -92 -47 -92 -75 0 -32 90 -112 151 -135 30 -11
104 -25 164 -31 61 -7 181 -21 268 -33 l159 -20 64 21 c35 12 81 21 102 22 33
0 29 3 -43 28 -44 15 -95 35 -112 45 -45 23 -103 75 -103 92 0 21 -29 30 -205
65 -212 41 -285 45 -353 21z"/>
<path d="M8925 7049 c-167 -31 -313 -61 -332 -69 -13 -5 -23 -16 -23 -23 0
-18 -57 -71 -100 -93 -19 -9 -71 -29 -114 -44 l-80 -27 59 -8 c33 -4 76 -14
97 -22 33 -13 55 -13 220 7 336 39 386 47 434 71 54 26 134 98 134 121 0 25
-56 66 -112 83 -57 16 -107 18 -183 4z"/>
<path d="M5812 7012 c-10 -7 -9 -21 4 -73 25 -98 15 -153 -52 -286 -51 -101
-58 -120 -58 -176 -1 -69 28 -142 55 -142 23 0 99 99 121 159 11 28 42 102 70
164 46 104 50 118 50 192 0 106 -8 139 -37 150 -36 14 -139 22 -153 12z"/>
<path d="M4038 6999 c-63 -25 -7 -88 120 -138 67 -25 375 -94 515 -114 34 -5
38 -4 32 11 -12 32 -24 112 -19 125 5 15 -146 60 -331 98 -111 23 -280 33
-317 18z"/>
<path d="M8290 6995 c-46 -8 -161 -33 -255 -56 l-171 -42 0 -52 c-1 -28 -7
-61 -13 -74 -7 -12 -11 -25 -8 -27 7 -7 328 53 437 82 111 29 182 60 228 98
85 73 -8 103 -218 71z"/>
<path d="M3511 6769 c-78 -13 -163 -58 -175 -92 -8 -23 -6 -31 19 -58 17 -16
59 -44 94 -62 59 -29 73 -31 185 -35 199 -5 491 13 566 35 l64 20 -67 22 c-69
23 -137 75 -137 104 0 17 -52 27 -275 52 -215 23 -217 23 -274 14z"/>
<path d="M8720 6750 c-238 -28 -236 -28 -237 -51 -4 -42 -63 -85 -153 -109
l-45 -12 53 -14 c29 -8 61 -18 70 -23 9 -5 141 -12 292 -16 245 -7 282 -6 335
10 94 27 185 89 185 126 0 25 -51 64 -115 88 -69 26 -166 26 -385 1z"/>
<path d="M4185 6755 c-5 -2 -22 -6 -37 -9 -75 -17 -67 -64 17 -102 74 -34 167
-51 325 -59 l135 -7 27 68 c15 38 26 69 25 70 -1 1 -58 12 -126 23 -108 18
-330 28 -366 16z"/>
<path d="M8100 6753 c-167 -26 -226 -36 -233 -40 -5 -3 -1 -13 7 -22 9 -10 23
-39 32 -64 l16 -47 76 0 c205 1 381 37 434 90 37 37 28 56 -35 75 -47 14 -228
19 -297 8z"/>
<path d="M4277 6549 c-71 -10 -147 -43 -147 -63 0 -23 47 -55 109 -73 43 -13
97 -17 231 -18 169 0 175 1 172 20 -1 11 -5 45 -9 76 l-6 56 -81 7 c-102 8
-194 6 -269 -5z"/>
<path d="M7984 6553 l-61 -4 -6 -62 c-2 -34 -6 -69 -8 -77 -3 -13 20 -15 171
-15 188 1 260 14 313 56 35 27 34 45 -5 65 -68 35 -207 48 -404 37z"/>
<path d="M3680 6489 c-132 -7 -162 -14 -225 -47 -51 -27 -78 -50 -99 -84 -23
-36 -7 -61 64 -96 87 -43 145 -41 450 13 146 25 292 55 324 66 33 10 68 19 78
19 33 0 19 17 -19 23 -62 10 -126 48 -143 84 l-15 33 -145 -2 c-80 -1 -201 -5
-270 -9z"/>
<path d="M8450 6486 c0 -31 -54 -73 -116 -91 -32 -10 -66 -20 -74 -22 -27 -9
241 -68 583 -128 109 -19 149 -22 187 -15 98 19 170 63 170 105 0 26 -61 86
-115 113 -67 33 -131 41 -388 48 -230 7 -247 6 -247 -10z"/>
<path d="M5804 6313 c-56 -69 -83 -126 -90 -191 -9 -81 28 -121 80 -86 29 18
116 130 116 148 0 6 -10 16 -22 21 -31 14 -44 65 -31 120 6 25 7 45 2 45 -4 0
-29 -26 -55 -57z"/>
<path d="M4370 6349 c-135 -17 -240 -57 -240 -93 0 -23 44 -54 94 -67 58 -14
218 -7 320 16 38 8 70 16 71 17 2 2 5 33 7 71 l4 67 -96 -1 c-52 -1 -124 -5
-160 -10z"/>
<path d="M7927 6293 c3 -38 7 -69 8 -71 2 -2 52 -12 111 -23 187 -35 329 -18
368 43 35 57 -172 118 -401 118 l-92 0 6 -67z"/>
<path d="M6690 6298 c-1 -30 -32 -99 -53 -117 -10 -7 -29 -13 -43 -13 -24 0
-25 -3 -20 -32 11 -56 50 -120 80 -131 24 -8 30 -6 46 15 42 54 48 184 14 267
-17 39 -24 42 -24 11z"/>
<path d="M6242 6259 c-18 -28 -49 -60 -69 -71 -35 -21 -35 -22 -29 -71 8 -54
25 -96 50 -116 12 -10 19 -10 37 2 28 20 62 72 83 127 16 44 16 47 -3 90 -11
25 -21 55 -21 68 0 34 -12 27 -48 -29z"/>
<path d="M5998 6237 c-58 -57 -58 -58 -58 -118 0 -60 20 -119 41 -119 24 0 71
45 99 93 30 52 38 87 20 87 -13 0 -30 34 -38 78 l-7 37 -57 -58z"/>
<path d="M4050 6278 c-255 -43 -432 -82 -476 -104 -84 -40 -158 -133 -141
-177 3 -8 22 -22 44 -33 31 -15 59 -19 148 -18 109 0 111 1 218 48 60 26 169
69 244 97 74 27 142 53 151 59 15 8 15 9 -1 10 -10 0 -40 9 -66 21 -51 21 -76
57 -66 90 4 11 5 18 3 18 -2 -1 -28 -6 -58 -11z"/>
<path d="M6475 6251 c-24 -55 -68 -95 -95 -88 -20 5 -21 3 -15 -31 10 -57 41
-119 64 -131 30 -16 55 0 80 52 34 71 37 124 8 184 l-24 53 -18 -39z"/>
<path d="M8446 6263 c7 -37 -34 -76 -100 -95 l-49 -15 119 -43 c65 -23 182
-70 259 -103 129 -55 147 -60 230 -65 102 -5 161 7 201 42 34 28 29 55 -20
112 -63 73 -125 97 -376 143 -124 23 -235 44 -247 47 -20 4 -22 1 -17 -23z"/>
<path d="M6883 6214 c-25 -28 -59 -31 -91 -8 -33 23 -37 13 -17 -48 20 -65 62
-128 98 -148 24 -13 28 -13 44 3 22 22 23 131 2 189 l-14 37 -22 -25z"/>
<path d="M4540 6174 c-203 -44 -360 -129 -360 -195 0 -34 44 -52 108 -46 104
11 390 103 385 123 -13 49 -50 134 -58 133 -5 -1 -39 -7 -75 -15z"/>
<path d="M7914 6163 c-4 -16 -15 -45 -26 -66 -10 -21 -16 -42 -13 -46 16 -27
339 -121 415 -121 47 0 90 21 90 45 0 53 -165 146 -337 189 -56 15 -106 26
-112 26 -6 0 -14 -12 -17 -27z"/>
<path d="M5603 6072 l-83 -97 153 -6 c192 -8 307 -1 284 16 -20 15 -47 76 -47
107 -1 21 -4 19 -38 -19 -39 -44 -97 -83 -123 -83 -33 0 -54 39 -59 111 l-5
68 -82 -97z"/>
<path d="M8255 6118 c79 -44 108 -66 135 -105 27 -39 20 -67 -22 -93 l-30 -18
59 -39 c203 -137 296 -178 421 -189 110 -9 143 25 103 104 -61 119 -143 168
-516 304 -190 70 -230 80 -150 36z"/>
<path d="M4170 6091 c-171 -61 -353 -135 -407 -167 -74 -43 -147 -149 -141
-207 3 -30 7 -33 51 -41 103 -20 246 31 445 160 l103 67 -30 18 c-78 48 -39
127 95 194 77 38 31 28 -116 -24z"/>
<path d="M2582 6051 c-80 -177 -109 -364 -78 -496 11 -44 37 -107 72 -168 55
-97 77 -119 55 -56 -6 18 -9 34 -7 36 2 2 12 -17 21 -44 27 -72 67 -167 77
-178 4 -5 8 37 8 93 0 60 8 143 20 204 41 213 15 393 -81 548 -17 28 -37 69
-43 92 l-12 40 -32 -71z"/>
<path d="M4595 5981 c-133 -64 -199 -120 -229 -193 -28 -67 13 -100 95 -78 85
23 300 148 298 174 0 6 -10 38 -22 71 -16 44 -27 61 -42 62 -11 2 -56 -15
-100 -36z"/>
<path d="M7835 6010 c-8 -12 -45 -121 -45 -131 0 -12 182 -125 240 -147 84
-33 116 -37 146 -17 23 14 25 22 21 52 -3 19 -18 51 -33 70 -31 41 -138 112
-230 154 -68 31 -89 35 -99 19z"/>
<path d="M2965 5905 c-97 -73 -130 -134 -150 -283 -9 -59 -25 -143 -36 -187
-25 -95 -39 -359 -20 -378 8 -8 11 -4 11 16 0 15 6 38 14 50 8 12 17 38 21 57
10 46 43 108 109 201 94 134 122 247 108 448 l-7 114 -50 -38z"/>
<path d="M4358 5919 c-79 -17 -101 -28 -240 -115 -84 -53 -172 -115 -196 -138
-77 -74 -135 -219 -100 -254 29 -29 138 -4 258 59 97 51 282 220 263 240 -16
16 -17 58 -2 96 5 15 33 52 62 81 28 28 49 51 47 51 -3 -1 -44 -10 -92 -20z"/>
<path d="M8152 5882 c64 -65 85 -114 67 -158 -10 -28 -8 -31 91 -127 81 -78
119 -106 185 -137 102 -50 183 -69 219 -52 22 10 26 18 26 52 0 53 -41 137
-94 193 -49 50 -348 242 -391 250 -16 3 -59 13 -94 21 l-64 15 55 -57z"/>
<path d="M5407 5923 c-4 -3 -7 -154 -7 -335 l0 -328 880 0 880 0 0 335 0 335
-873 0 c-481 0 -877 -3 -880 -7z"/>
<path d="M4739 5822 c-138 -105 -216 -198 -226 -271 -18 -132 147 -73 307 111
l60 69 -47 57 c-25 31 -49 58 -52 59 -3 1 -22 -11 -42 -25z"/>
<path d="M7726 5789 l-47 -61 28 -36 c136 -180 344 -278 343 -162 -1 68 -107
199 -232 287 l-45 32 -47 -60z"/>
<path d="M10135 5719 c-77 -66 -141 -123 -143 -128 -1 -4 11 -11 28 -15 l31
-6 -43 -50 c-46 -53 -118 -166 -118 -184 0 -11 35 24 144 143 46 50 50 52 63
35 7 -10 13 -24 13 -31 0 -7 3 -13 8 -13 8 0 166 359 160 364 -1 2 -66 -50
-143 -115z"/>
<path d="M9778 5701 c-75 -69 -136 -129 -137 -132 -1 -4 15 -10 34 -13 19 -4
35 -9 35 -11 0 -2 -49 -79 -108 -172 -60 -92 -143 -224 -186 -293 -106 -171
-127 -205 -226 -361 -100 -156 -215 -358 -207 -365 11 -11 186 241 359 516 46
74 96 153 110 175 14 22 88 138 164 259 l138 218 23 -28 c12 -15 24 -26 25
-24 6 9 118 354 115 356 -1 1 -63 -55 -139 -125z"/>
<path d="M4530 5708 c-25 -11 -70 -22 -101 -25 l-56 -6 -125 -121 c-98 -96
-131 -135 -157 -188 -34 -69 -48 -138 -37 -182 6 -23 12 -26 46 -26 49 0 141
36 204 80 26 17 81 74 123 126 70 87 75 97 64 120 -24 54 -2 128 59 197 18 21
31 39 29 41 -2 2 -24 -5 -49 -16z"/>
<path d="M7991 5701 c59 -76 79 -116 79 -158 0 -24 -5 -52 -12 -62 -9 -16 -1
-30 56 -102 37 -46 86 -99 109 -118 55 -44 157 -91 216 -98 62 -7 75 8 69 81
-8 96 -47 157 -193 304 -127 126 -135 132 -173 132 -23 0 -71 11 -106 24 l-66
23 21 -26z"/>
<path d="M4857 5660 c-100 -112 -151 -213 -145 -292 3 -40 5 -43 35 -46 42 -4
85 19 150 81 48 45 153 193 153 215 0 5 -14 15 -30 22 -17 7 -49 26 -70 41
-22 16 -42 29 -44 29 -2 0 -24 -23 -49 -50z"/>
<path d="M7589 5672 c-31 -20 -65 -42 -75 -48 -18 -11 -15 -17 39 -97 86 -127
183 -207 252 -207 55 0 56 86 2 184 -31 55 -146 206 -157 205 -3 0 -30 -17
-61 -37z"/>
<path d="M2170 5647 c0 -40 42 -222 69 -295 66 -182 179 -291 350 -338 57 -16
62 -16 79 -1 23 21 76 22 96 1 40 -40 42 -86 6 -119 -15 -13 -16 -23 -9 -48
15 -54 11 -57 -43 -21 -29 19 -84 44 -122 56 -78 24 -117 21 -279 -22 l-88
-23 68 -69 c94 -95 133 -112 242 -103 47 3 105 2 128 -3 l41 -10 -5 34 c-6 39
6 58 46 72 61 21 112 -67 68 -116 -16 -18 -15 -21 35 -68 29 -28 74 -64 99
-82 45 -30 47 -31 64 -12 13 15 14 22 5 40 -9 17 -17 20 -40 15 -76 -17 -135
79 -84 136 22 25 8 69 -21 69 -34 0 -75 53 -75 97 0 25 8 43 29 64 31 30 59
36 92 18 17 -9 27 -4 67 32 67 61 107 116 131 176 28 71 43 210 34 302 l-8 74
-52 -41 c-104 -83 -180 -162 -211 -221 -35 -64 -40 -91 -18 -91 21 0 56 -49
56 -77 0 -27 -50 -83 -73 -83 -8 0 -36 15 -62 33 -38 26 -57 50 -95 122 -64
122 -127 189 -233 248 -84 46 -109 69 -256 237 -24 27 -30 31 -31 17z"/>
<path d="M9260 5528 c-47 -61 -97 -126 -112 -143 -16 -18 -28 -35 -28 -38 0
-3 19 -3 42 0 49 7 53 27 -37 -202 -160 -406 -424 -1111 -425 -1132 0 -2 6 -3
14 -3 22 0 103 194 321 765 40 105 103 270 141 368 l68 177 28 -27 c15 -15 28
-22 28 -16 0 6 12 86 26 177 14 92 24 171 22 177 -2 5 -41 -41 -88 -103z"/>
<path d="M5048 5548 c-72 -124 -117 -310 -85 -352 32 -43 124 27 184 140 27
52 88 224 81 229 -2 1 -28 8 -58 17 -30 8 -62 18 -70 22 -12 5 -25 -10 -52
-56z"/>
<path d="M7377 5582 c-58 -16 -59 -17 -54 -48 8 -49 65 -177 107 -243 39 -59
100 -111 132 -111 28 0 41 37 34 96 -15 126 -99 317 -142 320 -10 1 -45 -6
-77 -14z"/>
<path d="M5259 5548 c-13 -24 -46 -189 -54 -269 -15 -154 59 -239 134 -154
l31 36 0 198 0 199 -51 4 c-41 2 -53 -1 -60 -14z"/>
<path d="M7200 5347 c0 -214 0 -214 24 -236 29 -28 64 -23 85 10 33 54 31 194
-5 362 l-17 77 -43 0 -44 0 0 -213z"/>
<path d="M4673 5497 c-27 -20 -58 -31 -90 -35 -47 -5 -49 -6 -127 -106 -95
-122 -146 -222 -153 -304 -10 -108 31 -129 143 -72 90 45 142 101 203 219 49
95 52 105 41 132 -15 36 -9 103 15 152 10 21 16 39 14 41 -2 2 -23 -10 -46
-27z"/>
<path d="M7830 5528 c0 -3 9 -25 20 -49 22 -48 26 -129 9 -157 -9 -14 0 -38
50 -129 69 -124 118 -176 208 -218 198 -94 186 126 -22 385 -67 83 -81 95
-110 97 -35 2 -107 34 -137 61 -10 8 -18 13 -18 10z"/>
<path d="M9870 5472 c-30 -27 -92 -78 -137 -114 -45 -37 -79 -69 -76 -72 4 -3
19 -6 35 -6 33 0 35 -6 8 -35 -45 -47 -862 -1126 -905 -1195 -26 -42 -24 -67
6 -55 8 3 38 38 67 78 92 126 213 286 382 507 90 118 198 260 240 315 157 207
262 340 270 343 5 2 12 -8 16 -23 3 -14 11 -24 17 -22 6 2 30 51 53 110 54
136 84 217 81 217 -1 0 -27 -22 -57 -48z"/>
<path d="M10305 5494 c-11 -8 -78 -50 -149 -92 -118 -70 -126 -77 -105 -86 13
-5 26 -11 28 -13 2 -1 -27 -35 -65 -76 -38 -40 -80 -93 -93 -117 l-25 -45 60
52 c32 28 81 74 109 102 l49 51 16 -40 16 -40 81 137 c83 142 106 183 101 183
-2 0 -12 -8 -23 -16z"/>
<path d="M7590 5422 c0 -4 7 -29 15 -56 8 -27 15 -73 15 -103 0 -61 67 -282
105 -348 32 -55 81 -100 137 -125 57 -25 82 -16 104 35 33 81 8 188 -88 366
-53 98 -60 106 -88 107 -39 1 -104 38 -158 91 -23 23 -42 38 -42 33z"/>
<path d="M4934 5399 c-37 -41 -111 -88 -158 -101 -46 -12 -48 -14 -101 -113
-66 -124 -95 -208 -95 -279 0 -68 12 -100 44 -121 23 -15 28 -15 73 5 26 12
69 44 95 71 38 41 52 67 77 142 46 141 59 197 60 257 0 30 7 77 15 105 9 27
14 50 12 52 -1 2 -11 -6 -22 -18z"/>
<path d="M7360 5329 c0 -86 89 -497 121 -562 50 -97 120 -158 158 -137 34 18
54 70 59 150 4 69 0 87 -47 231 l-51 155 -35 -4 c-59 -7 -119 42 -181 151 -22
38 -24 40 -24 16z"/>
<path d="M5163 5313 c-3 -10 -24 -41 -45 -70 -47 -61 -119 -103 -143 -83 -9 7
-17 11 -19 9 -2 -2 -22 -65 -45 -139 -63 -201 -67 -317 -14 -380 31 -37 51
-34 106 19 70 66 96 134 132 346 37 215 50 315 41 315 -4 0 -9 -8 -13 -17z"/>
<path d="M9301 5188 l-124 -128 37 0 c20 0 36 -3 36 -6 0 -3 -81 -166 -181
-362 -175 -345 -333 -682 -320 -682 18 0 141 221 330 593 117 229 215 417 218
417 4 0 15 -7 25 -17 10 -9 21 -13 24 -10 6 6 85 321 81 323 -1 0 -58 -57
-126 -128z"/>
<path d="M9896 5233 c-33 -25 -94 -69 -136 -97 l-77 -53 29 -11 30 -11 -143
-157 c-394 -432 -582 -651 -682 -794 -34 -48 218 211 406 420 122 134 254 278
292 320 39 41 89 96 111 123 23 26 44 47 48 47 3 0 12 -13 18 -29 13 -30 13
-29 96 130 45 87 79 159 75 159 -5 -1 -35 -21 -67 -47z"/>
<path d="M5407 5213 c-3 -5 -4 -298 -3 -653 1 -599 2 -648 19 -673 22 -34 54
-55 95 -63 l32 -6 0 701 0 701 -69 0 c-39 0 -72 -3 -74 -7z"/>
<path d="M5685 5208 c-3 -7 -4 -321 -3 -698 l3 -685 70 0 70 0 2 698 2 697
-70 0 c-46 0 -71 -4 -74 -12z"/>
<path d="M5960 4520 l0 -700 65 0 65 0 0 700 0 700 -65 0 -65 0 0 -700z"/>
<path d="M6220 4504 l0 -715 31 -38 32 -37 38 41 39 42 0 712 0 711 -70 0 -70
0 0 -716z"/>
<path d="M6480 4520 l0 -700 70 0 70 0 0 700 0 700 -70 0 -70 0 0 -700z"/>
<path d="M6740 4520 l0 -700 70 0 70 0 0 700 0 700 -70 0 -70 0 0 -700z"/>
<path d="M7010 4520 c0 -697 0 -700 20 -700 39 0 90 29 110 62 19 32 20 49 20
686 l0 652 -75 0 -75 0 0 -700z"/>
<path d="M10308 5180 c-13 -8 -222 -89 -298 -116 -11 -4 -8 -9 13 -20 15 -8
27 -18 27 -22 0 -4 -38 -36 -84 -70 -46 -35 -94 -78 -105 -97 -11 -19 -18 -35
-15 -35 4 0 57 36 120 80 62 44 116 80 119 80 3 0 5 -12 5 -27 0 -61 16 -51
120 79 99 123 125 158 118 158 -2 0 -10 -5 -20 -10z"/>
<path d="M5157 4963 c-30 -199 -28 -258 16 -343 43 -83 100 -78 165 15 l32 47
0 214 0 215 -28 -21 c-44 -32 -101 -25 -127 17 -11 18 -22 32 -25 33 -3 0 -18
-80 -33 -177z"/>
<path d="M7325 5107 c-15 -24 -29 -33 -54 -35 -18 -2 -38 1 -44 7 -6 6 -15 11
-19 11 -4 0 -8 -95 -8 -210 0 -231 3 -245 60 -294 18 -14 42 -26 55 -26 53 0
105 110 105 221 0 32 -13 123 -30 202 -16 80 -30 147 -30 151 0 15 -17 2 -35
-27z"/>
<path d="M3300 5027 c-78 -94 -132 -180 -161 -256 -35 -92 -36 -225 -3 -306 7
-19 7 -19 -9 -3 -29 28 -57 32 -86 11 -14 -11 -27 -30 -29 -42 -5 -30 34 -71
67 -72 24 -2 24 -2 4 -6 -26 -5 -28 -18 -8 -53 23 -39 18 -75 -14 -109 -40
-43 -87 -43 -136 0 -27 24 -35 39 -33 58 l3 26 -90 0 c-84 -1 -96 -3 -181 -43
-50 -23 -100 -42 -112 -42 -11 0 -27 -3 -36 -6 -37 -14 180 -154 239 -154 14
0 47 14 73 32 68 47 195 89 249 81 38 -5 44 -3 52 18 26 62 59 74 105 38 28
-22 33 -48 15 -80 -6 -12 -8 -28 -5 -36 6 -14 8 -14 24 1 10 9 32 16 49 16 31
0 31 1 26 43 -8 55 -39 93 -84 101 -41 7 -72 36 -94 90 -15 35 -15 40 -1 55 9
10 16 26 16 36 0 10 3 15 6 12 4 -3 16 0 28 8 31 22 89 19 121 -7 l27 -21 19
24 c27 35 59 142 66 224 4 48 -1 122 -16 226 -11 85 -22 168 -23 184 -3 29 -5
28 -68 -48z"/>
<path d="M9830 4951 c-47 -26 -116 -65 -155 -86 l-70 -39 33 -8 c18 -5 32 -13
30 -17 -2 -5 -93 -93 -203 -196 -355 -334 -647 -627 -636 -638 7 -7 16 -6 29
4 36 26 249 223 473 438 355 340 366 351 373 351 3 0 12 -14 18 -30 l13 -31
41 68 c22 37 64 105 92 151 29 45 51 82 50 82 -2 0 -41 -22 -88 -49z"/>
<path d="M3635 4927 c-22 -33 -72 -105 -112 -159 -133 -182 -150 -305 -70
-492 19 -44 31 -89 31 -119 1 -43 -3 -52 -33 -79 -29 -26 -39 -29 -72 -24 -31
5 -39 3 -39 -9 0 -9 9 -15 25 -15 35 0 73 -27 101 -72 14 -21 32 -38 42 -38
20 0 92 -62 110 -95 10 -19 14 -17 62 30 l51 50 -42 37 -41 38 -30 -25 c-38
-32 -69 -32 -107 1 -43 36 -44 94 -3 132 26 24 30 37 40 128 14 126 42 218 95
314 75 134 77 150 49 342 l-17 117 -40 -62z"/>
<path d="M2840 4890 c-42 -42 -8 -130 51 -130 65 0 98 90 47 133 -27 23 -73
22 -98 -3z"/>
<path d="M10110 4832 c-160 -47 -173 -52 -154 -59 6 -2 19 -10 29 -17 16 -11
9 -18 -68 -61 -77 -43 -176 -125 -152 -125 6 0 63 29 128 65 65 36 122 65 125
65 4 0 6 -18 4 -40 -2 -22 0 -39 4 -39 13 2 260 259 249 258 -6 -1 -80 -22
-165 -47z"/>
<path d="M3902 4670 c-182 -91 -229 -130 -272 -223 -29 -61 -53 -169 -64 -279
-6 -53 -5 -57 16 -60 18 -2 29 7 49 38 21 33 44 50 112 83 153 75 198 131 270
337 20 54 42 116 51 136 18 43 19 48 7 48 -5 0 -81 -36 -169 -80z"/>
<path d="M9800 4700 c-32 -18 -218 -98 -265 -114 -18 -7 -16 -9 14 -22 41 -17
51 -7 -124 -139 -177 -134 -363 -288 -460 -380 -66 -64 -73 -73 -40 -54 82 47
114 70 286 205 97 77 226 178 287 226 l112 88 6 -28 c3 -15 6 -30 7 -34 1 -4
38 39 82 94 89 112 138 178 133 178 -1 -1 -19 -9 -38 -20z"/>
<path d="M2500 4599 c-24 -5 -80 -26 -124 -47 l-80 -38 54 -18 c30 -10 82 -35
115 -56 33 -22 87 -52 120 -67 57 -26 68 -28 200 -28 77 0 162 4 188 8 46 8
48 10 33 26 -9 10 -16 28 -16 42 -1 19 -17 34 -73 71 -156 102 -280 134 -417
107z"/>
<path d="M10033 4546 c-90 -22 -163 -44 -163 -47 0 -3 12 -11 27 -18 33 -15
26 -22 -68 -61 -45 -18 -91 -46 -110 -66 l-33 -34 75 29 c41 16 94 38 119 50
66 30 71 29 63 -26 l-6 -48 74 70 c41 39 105 98 143 133 38 34 63 62 55 61 -8
-1 -87 -20 -176 -43z"/>
<path d="M5285 4435 c-122 -27 -216 -73 -251 -124 -13 -18 -12 -21 8 -32 34
-18 172 -14 253 7 l70 19 3 73 c3 81 9 77 -83 57z"/>
<path d="M7200 4378 l0 -73 98 -23 c106 -24 191 -28 241 -11 36 13 38 18 12
51 -30 37 -128 85 -222 108 -133 32 -129 33 -129 -52z"/>
<path d="M9605 4403 c-77 -25 -147 -47 -155 -50 -10 -3 -3 -10 20 -19 l35 -15
-55 -31 c-110 -63 -390 -229 -475 -282 -48 -30 -93 -57 -99 -59 -7 -3 -5 -11
5 -22 16 -16 19 -15 55 7 61 38 561 328 576 333 10 4 13 -4 10 -35 -2 -22 -2
-40 1 -40 3 0 30 26 59 57 29 32 84 90 122 130 38 40 63 73 55 72 -8 -1 -77
-21 -154 -46z"/>
<path d="M3171 4416 c-36 -38 -33 -92 7 -127 36 -32 67 -37 100 -13 12 8 22
11 22 5 0 -5 -4 -13 -10 -16 -14 -9 -12 -20 8 -45 l18 -23 27 25 27 25 -25 37
c-14 20 -25 51 -25 67 0 73 -100 117 -149 65z"/>
<path d="M2935 4315 c-73 -72 28 -178 109 -114 55 43 18 139 -54 139 -19 0
-40 -9 -55 -25z"/>
<path d="M5271 4250 c-94 -32 -187 -91 -211 -133 -14 -26 -14 -29 5 -43 26
-20 177 -14 253 10 l52 17 0 84 c0 46 -3 86 -7 88 -5 3 -46 -8 -92 -23z"/>
<path d="M7200 4191 l0 -89 33 -11 c132 -43 260 -53 296 -23 21 17 21 17 2 48
-36 59 -179 134 -298 157 l-33 7 0 -89z"/>
<path d="M4929 4246 c-94 -36 -185 -109 -220 -178 -61 -120 24 -130 248 -31
43 19 63 34 63 46 0 31 28 74 69 106 21 17 44 31 50 31 6 0 11 4 11 9 0 5 -24
11 -52 15 -29 3 -71 8 -93 11 -22 2 -56 -2 -76 -9z"/>
<path d="M7560 4251 c-8 -6 -39 -13 -68 -17 l-53 -6 28 -18 c44 -27 103 -98
103 -124 0 -19 13 -29 78 -59 135 -62 241 -79 255 -42 10 23 -40 111 -91 162
-79 79 -209 132 -252 104z"/>
<path d="M3349 4201 c-36 -36 -37 -73 -4 -106 32 -33 60 -31 97 5 25 26 29 36
24 63 -7 36 -38 67 -68 67 -11 0 -33 -13 -49 -29z"/>
<path d="M3012 4104 c-115 -31 -185 -85 -315 -245 l-46 -57 47 -13 c27 -8 91
-14 152 -13 85 0 115 5 159 23 72 29 129 71 186 137 44 52 46 56 30 73 -9 11
-20 32 -24 47 -6 24 -13 30 -43 32 -20 2 -42 10 -48 18 -15 17 -29 17 -98 -2z"/>
<path d="M4063 4100 c-47 -11 -78 -34 -93 -69 -17 -43 -6 -78 33 -97 44 -23
47 -30 25 -72 -29 -57 -21 -85 26 -94 72 -15 144 24 177 96 60 132 -35 266
-168 236z"/>
<path d="M8468 4100 c-92 -27 -142 -127 -108 -215 17 -45 72 -105 104 -113 43
-12 106 -3 113 16 4 8 1 35 -6 60 -10 39 -9 47 5 63 23 26 67 24 99 -4 32 -27
26 -50 -16 -69 -16 -7 -29 -15 -29 -19 0 -3 15 -13 33 -22 17 -9 79 -59 136
-112 117 -106 145 -117 195 -70 32 30 34 76 6 123 -33 53 -192 214 -227 228
-43 19 -83 18 -112 -3 -22 -15 -23 -15 -14 2 14 23 0 71 -28 101 -11 12 -40
27 -64 33 -49 12 -50 12 -87 1z"/>
<path d="M3515 4070 c-26 -29 -24 -79 4 -102 32 -25 67 -23 96 7 30 30 31 54
4 89 -26 33 -77 36 -104 6z"/>
<path d="M5289 4046 c-31 -12 -72 -32 -92 -45 -51 -31 -107 -97 -107 -126 0
-39 31 -48 139 -42 115 7 166 22 155 46 -4 9 -9 55 -12 104 -3 57 -8 87 -15
87 -7 0 -37 -11 -68 -24z"/>
<path d="M7197 3988 c-3 -46 -7 -94 -9 -108 -3 -21 3 -27 37 -38 97 -32 240
-31 273 2 38 38 -64 140 -195 196 -101 44 -100 44 -106 -52z"/>
<path d="M4975 4013 c-116 -62 -246 -210 -216 -247 29 -35 154 -21 265 28 46
20 57 29 48 38 -31 31 -4 97 64 156 l46 39 -54 6 c-29 3 -60 8 -68 11 -8 3
-46 -11 -85 -31z"/>
<path d="M7462 4033 l-62 -4 59 -57 c64 -61 82 -102 62 -135 -16 -25 -12 -27
94 -62 135 -45 225 -44 225 3 0 29 -53 104 -106 150 -58 52 -164 113 -190 110
-10 -1 -47 -3 -82 -5z"/>
<path d="M3329 3995 c-60 -33 -56 -120 8 -150 29 -14 40 -15 64 -5 39 17 51
33 52 75 2 64 -70 110 -124 80z"/>
<path d="M4613 3974 c-54 -27 -103 -88 -103 -129 0 -29 6 -39 32 -55 61 -37
173 -38 184 -2 13 41 40 85 81 128 l45 46 -34 -8 c-62 -16 -119 -10 -138 14
-21 26 -25 26 -67 6z"/>
<path d="M7912 3962 c-22 -22 -29 -24 -80 -19 -32 3 -66 9 -77 13 -11 4 4 -19
37 -54 31 -34 61 -77 68 -96 9 -29 18 -37 46 -42 88 -16 176 17 182 70 4 35
-29 87 -75 119 -55 37 -74 39 -101 9z"/>
<path d="M3845 3966 c-32 -14 -220 -199 -241 -238 -22 -39 -17 -77 15 -109 16
-16 39 -29 50 -29 11 0 67 42 127 96 59 52 125 104 146 115 39 20 43 39 8 39
-19 0 -50 25 -50 41 0 11 33 45 50 51 10 3 10 9 1 26 -14 26 -58 29 -106 8z"/>
<path d="M3212 3870 c-24 -11 -69 -40 -101 -65 -89 -70 -135 -142 -197 -309
l-33 -89 59 6 c64 7 123 28 152 54 9 8 25 41 34 71 23 81 55 137 124 221 41
51 57 78 50 85 -7 7 -23 -2 -50 -29 -22 -21 -42 -36 -45 -33 -3 3 13 22 36 42
24 23 38 43 35 52 -7 18 -12 18 -64 -6z"/>
<path d="M3425 3829 c-21 -14 -40 -18 -65 -15 -33 5 -38 2 -74 -47 -89 -119
-118 -241 -114 -475 2 -84 6 -152 9 -152 3 0 40 32 82 70 138 128 205 258 214
421 6 90 -4 220 -15 218 -4 0 -20 -9 -37 -20z"/>
<path d="M5342 3804 c-63 -43 -136 -123 -150 -164 -37 -104 191 -85 384 31 87
53 163 124 127 118 -5 -1 -56 -1 -114 0 -96 1 -110 3 -143 26 -20 14 -40 25
-44 25 -4 -1 -31 -17 -60 -36z"/>
<path d="M7127 3817 c-24 -19 -45 -23 -135 -27 l-106 -5 51 -45 c109 -97 253
-162 365 -164 51 -1 71 3 85 16 16 17 16 20 0 52 -9 19 -32 53 -52 75 -35 38
-152 122 -171 120 -5 0 -22 -10 -37 -22z"/>
<path d="M4181 3781 c-18 -16 -48 -32 -66 -35 -30 -6 -44 -23 -49 -59 -1 -12
92 -18 99 -7 9 15 27 12 22 -2 -2 -7 5 -25 15 -40 l19 -28 169 0 169 0 15 29
c8 15 31 42 51 59 l35 32 -27 5 c-72 15 -101 27 -123 50 -23 24 -27 25 -159
25 -135 -1 -136 -1 -170 -29z"/>
<path d="M5060 3772 c-108 -65 -199 -176 -186 -227 12 -47 120 -40 228 14 46
23 53 31 59 63 7 46 50 108 102 152 l40 33 -94 -1 c-87 -1 -97 -3 -149 -34z"/>
<path d="M8233 3803 c-73 -2 -133 -7 -133 -11 0 -14 -74 -50 -117 -57 l-43 -7
29 -24 c16 -13 36 -40 45 -59 l17 -35 174 0 174 0 17 28 c11 20 25 29 43 29
85 2 109 55 36 80 -22 7 -51 25 -65 38 -14 14 -30 24 -36 23 -5 -1 -69 -4
-141 -5z"/>
<path d="M7344 3740 c28 -30 58 -71 65 -90 22 -59 26 -64 93 -98 76 -40 171
-53 202 -29 18 13 19 19 8 55 -15 51 -85 129 -159 178 -57 37 -58 38 -159 38
l-102 1 52 -55z"/>
<path d="M5805 3738 c-54 -60 -59 -101 -13 -106 29 -3 96 27 118 53 11 14 10
18 -8 31 -14 10 -22 26 -22 45 0 43 -21 37 -75 -23z"/>
<path d="M6046 3762 c-23 -44 -22 -148 1 -161 34 -18 99 34 128 101 8 21 15
42 15 47 0 15 -30 28 -82 36 -45 7 -47 6 -62 -23z"/>
<path d="M6431 3780 c-18 -4 -39 -14 -47 -22 -21 -21 1 -86 46 -130 65 -65
100 -45 100 56 0 102 -15 116 -99 96z"/>
<path d="M3921 3765 c-18 -8 -78 -59 -132 -113 -86 -84 -99 -102 -99 -130 0
-46 46 -92 92 -92 29 0 48 14 151 118 64 64 117 121 117 125 0 4 -8 7 -18 7
-10 0 -27 6 -37 14 -16 12 -17 18 -8 39 9 18 9 27 0 36 -14 14 -24 14 -66 -4z"/>
<path d="M8613 3769 c-8 -8 -9 -19 -2 -37 12 -31 -8 -52 -48 -52 -13 0 -23 -4
-23 -8 0 -4 56 -63 123 -130 83 -82 131 -122 146 -122 70 0 123 80 91 139 -5
10 -59 64 -120 120 -109 100 -140 117 -167 90z"/>
<path d="M7625 3727 c63 -46 115 -122 115 -166 0 -43 160 -60 222 -24 65 37
41 118 -53 180 -34 22 -43 24 -65 14 -35 -15 -121 -14 -180 4 -66 20 -74 18
-39 -8z"/>
<path d="M4700 3724 c-72 -49 -116 -110 -105 -145 17 -51 123 -75 218 -48 30
8 37 15 37 35 0 35 24 78 73 131 l41 45 -39 -9 c-48 -10 -129 -10 -170 1 -21
5 -37 2 -55 -10z"/>
<path d="M6205 3717 c-15 -57 1 -147 34 -194 33 -46 26 -60 -8 -17 -18 23 -22
24 -27 10 -4 -9 -4 -55 -2 -101 3 -65 10 -95 31 -137 l27 -53 -25 28 c-30 34
-29 37 -50 -120 -23 -180 -34 -454 -24 -590 16 -192 73 -431 113 -471 12 -13
16 -10 31 18 21 41 61 198 80 315 33 199 29 463 -12 763 l-17 122 -29 -35
c-37 -45 -46 -39 -13 9 28 41 46 115 46 184 0 63 -11 79 -35 52 -10 -11 -23
-20 -29 -20 -6 0 -3 5 7 11 33 19 57 88 57 167 0 39 -4 72 -9 72 -5 0 -21 -13
-34 -30 -14 -16 -29 -30 -34 -30 -4 0 -22 17 -40 37 l-31 38 -7 -28z"/>
<path d="M6553 3681 c0 -33 -5 -67 -12 -75 -16 -20 5 -62 54 -105 122 -106
123 68 2 206 -16 18 -32 33 -36 33 -4 0 -8 -27 -8 -59z"/>
<path d="M5951 3684 c-24 -25 -51 -64 -62 -87 -22 -50 -25 -115 -5 -123 20 -8
64 17 109 60 39 39 45 54 25 74 -7 7 -12 37 -12 67 0 30 -3 55 -7 55 -3 0 -25
-21 -48 -46z"/>
<path d="M4074 3646 c-32 -14 -224 -213 -235 -244 -12 -32 2 -71 37 -102 73
-63 115 -49 233 80 115 126 134 170 91 221 l-19 24 -1 -31 c0 -34 -26 -64 -56
-64 -50 0 -59 56 -14 93 23 20 26 26 14 31 -9 3 -16 6 -17 6 -1 -1 -16 -7 -33
-14z"/>
<path d="M8475 3651 c-3 -5 6 -21 20 -35 28 -28 30 -38 15 -67 -12 -22 -52
-25 -69 -5 -7 8 -15 31 -18 52 l-6 37 -19 -22 c-21 -26 -23 -85 -5 -117 24
-42 190 -213 218 -224 15 -7 41 -9 57 -5 37 8 88 61 97 102 6 29 0 38 -85 130
-141 152 -185 185 -205 154z"/>
<path d="M6138 3614 c-21 -18 -46 -34 -57 -34 -24 0 -51 -65 -58 -141 -6 -66
8 -102 40 -97 57 8 139 190 121 268 l-9 39 -37 -35z"/>
<path d="M6376 3602 c-7 -58 4 -107 40 -178 28 -56 65 -94 90 -94 36 0 46 111
18 193 -13 40 -20 47 -41 47 -17 0 -39 14 -63 39 l-38 39 -6 -46z"/>
<path d="M6695 3607 c4 -12 9 -51 10 -87 3 -63 5 -67 57 -125 30 -33 108 -123
175 -200 66 -77 143 -161 171 -187 56 -52 186 -140 271 -183 l54 -27 -7 29
c-13 53 -96 214 -156 302 -131 191 -397 432 -531 481 l-51 19 7 -22z"/>
<path d="M5815 3600 c-134 -66 -415 -326 -522 -482 -62 -89 -156 -279 -151
-302 2 -14 16 -10 80 23 174 89 240 146 416 356 69 82 148 174 174 203 36 38
48 58 44 72 -3 11 -8 28 -11 38 -3 10 1 39 9 65 8 26 11 47 8 47 -4 0 -25 -9
-47 -20z"/>
<path d="M8142 3430 c-107 -65 -202 -126 -211 -134 -16 -15 -19 -14 -39 9 -12
14 -29 25 -38 25 -18 0 -323 -171 -324 -181 0 -4 21 -12 46 -19 25 -7 48 -19
51 -26 4 -10 10 -11 26 -3 20 9 21 9 4 -4 -17 -14 -41 -76 -33 -85 5 -4 128
77 229 150 56 42 67 55 67 79 0 16 5 29 11 29 6 0 9 -15 7 -37 -3 -37 -2 -38
37 -44 40 -7 40 -7 150 100 60 58 138 134 172 168 60 60 78 94 51 92 -7 0
-100 -54 -206 -119z"/>
<path d="M5960 3475 c-19 -14 -39 -25 -45 -25 -12 0 -105 -94 -192 -195 -142
-166 -233 -290 -282 -388 -51 -102 -111 -264 -111 -300 0 -17 2 -17 41 5 67
37 221 170 265 229 23 30 54 79 69 109 34 68 166 297 232 405 36 58 52 95 57
133 4 28 5 52 4 52 -2 -1 -19 -12 -38 -25z"/>
<path d="M6568 3448 c3 -27 24 -71 57 -123 29 -44 90 -145 135 -225 45 -80
100 -174 120 -210 21 -36 73 -100 115 -143 82 -83 222 -194 232 -183 21 21
-68 270 -139 384 -81 133 -390 490 -424 491 -12 1 -38 12 -58 26 -20 14 -39
25 -40 25 -2 0 -2 -19 2 -42z"/>
<path d="M8211 3316 l-163 -164 12 -36 11 -36 42 63 c39 58 45 62 87 67 l44 5
74 117 c52 83 71 122 65 133 -7 11 -45 -21 -172 -149z"/>
<path d="M4151 3384 c-50 -55 -60 -77 -41 -89 17 -11 82 -135 103 -198 18 -53
21 -88 21 -239 1 -208 1 -208 110 -269 37 -22 89 -57 114 -79 24 -22 49 -40
54 -40 5 0 16 16 24 35 18 44 9 110 -46 321 -51 196 -102 341 -152 434 -43 81
-113 180 -127 180 -5 0 -32 -25 -60 -56z"/>
<path d="M6138 3380 c-82 -111 -225 -584 -247 -820 -13 -138 7 -356 32 -347
16 5 82 120 125 220 59 135 82 232 82 351 0 108 20 320 44 464 8 50 11 107 8
135 l-7 47 -37 -50z"/>
<path d="M6377 3380 c-3 -24 1 -76 8 -115 21 -100 43 -317 51 -485 7 -159 26
-237 90 -377 40 -88 102 -193 114 -193 18 0 33 169 27 321 -5 137 -10 172 -45
309 -72 277 -134 451 -179 503 -15 18 -35 43 -44 57 l-16 24 -6 -44z"/>
<path d="M8343 3297 c-69 -108 -72 -114 -61 -144 11 -28 9 -36 -15 -72 -15
-22 -27 -42 -27 -43 0 -2 18 -4 39 -6 38 -2 40 -1 55 40 121 331 123 338 93
338 -7 0 -45 -51 -84 -113z"/>
<path d="M8461 3348 c-4 -12 -34 -90 -64 -173 -31 -82 -87 -232 -125 -332 -38
-101 -66 -183 -61 -183 5 0 9 5 9 10 0 28 20 3 40 -50 12 -33 26 -62 29 -65
10 -6 154 373 146 385 -4 7 -21 20 -39 31 -17 10 -26 19 -19 19 6 0 20 26 31
58 11 31 38 107 60 167 39 109 40 111 21 134 l-19 23 -9 -24z"/>
<path d="M6551 3342 c-6 -11 -20 -23 -30 -27 -19 -6 -20 -7 -2 -49 31 -71 98
-283 131 -415 34 -136 63 -201 139 -308 62 -88 157 -191 167 -181 12 12 -14
222 -41 337 -22 92 -38 130 -110 261 -94 170 -196 342 -224 379 l-19 24 -11
-21z"/>
<path d="M5923 3233 c-97 -161 -227 -401 -257 -476 -32 -82 -56 -201 -63 -316
l-6 -93 25 16 c40 26 155 168 208 255 37 62 54 106 78 203 33 133 111 381 142
453 19 43 19 45 1 45 -10 0 -24 7 -31 15 -7 8 -15 15 -19 15 -4 0 -39 -53 -78
-117z"/>
<path d="M8118 3123 c-25 -38 -70 -95 -100 -129 -55 -61 -103 -124 -95 -124 3
0 22 7 43 16 22 9 52 16 67 16 23 -1 34 9 65 59 20 33 60 96 88 139 29 43 49
81 46 84 -3 3 -20 6 -37 6 -28 0 -37 -8 -77 -67z"/>
<path d="M7933 3160 c-6 -24 -19 -26 -27 -3 -5 13 -27 -4 -107 -83 -55 -54
-114 -116 -131 -137 l-30 -37 57 6 c31 4 60 3 63 -2 4 -5 63 48 131 119 74 75
121 131 115 136 -5 5 -22 11 -37 15 -24 6 -30 3 -34 -14z"/>
<path d="M8206 3097 c-21 -34 -59 -93 -83 -130 -38 -58 -43 -73 -37 -103 3
-19 10 -36 14 -39 4 -2 28 39 54 93 25 53 62 119 81 146 34 47 42 86 20 93 -5
1 -28 -25 -49 -60z"/>
<path d="M7907 3019 c-115 -121 -115 -122 -119 -175 -1 -30 -1 -54 2 -54 5 0
176 173 238 241 33 36 33 37 18 73 -8 20 -17 36 -20 36 -2 0 -56 -55 -119
-121z"/>
<path d="M8228 3013 c-20 -5 -159 -335 -146 -348 2 -2 23 5 47 16 24 10 49 19
56 19 7 0 37 67 69 152 44 117 54 153 44 160 -14 8 -41 9 -70 1z"/>
<path d="M3026 10708 c-28 -18 -49 -37 -48 -43 4 -17 114 -165 123 -165 5 0
29 19 54 43 39 38 45 49 45 85 0 53 -39 100 -90 108 -29 5 -44 0 -84 -28z"/>
<path d="M2492 10182 c2 -5 23 -52 47 -106 l45 -97 58 58 58 58 -92 47 c-90
46 -123 57 -116 40z"/>
<path d="M2062 9767 c-32 -19 -86 -87 -76 -97 36 -35 169 -128 176 -124 24 15
68 90 68 116 0 86 -95 145 -168 105z"/>
<path d="M10398 9593 c-54 -20 -98 -39 -98 -43 0 -5 21 -34 46 -65 l46 -56 55
88 c61 97 69 113 57 112 -5 0 -53 -17 -106 -36z"/>
<path d="M1345 8469 c-52 -20 -92 -57 -119 -111 -14 -28 -26 -59 -26 -69 0
-12 54 -40 203 -103 111 -47 210 -86 219 -86 22 0 58 97 58 156 0 82 -48 147
-142 195 -49 25 -148 34 -193 18z"/>
<path d="M11331 5714 c-52 -13 -99 -25 -105 -27 -11 -4 128 -78 170 -91 21 -6
22 -2 29 64 4 39 6 73 4 74 -2 2 -46 -7 -98 -20z"/>
<path d="M10725 3992 c-11 -2 -31 -14 -43 -25 -23 -21 -62 -87 -62 -104 0 -5
41 -30 92 -57 87 -47 92 -48 105 -30 22 31 36 90 29 126 -10 54 -72 100 -121
90z"/>
<path d="M2507 2584 l-159 -165 25 -32 c13 -17 46 -46 72 -64 61 -43 127 -45
203 -7 122 61 188 214 136 317 -19 37 -93 117 -109 116 -5 0 -81 -74 -168
-165z"/>
<path d="M9238 2030 c20 -60 39 -110 42 -110 4 0 32 20 63 44 52 40 55 45 39
58 -21 19 -169 118 -176 118 -2 0 12 -49 32 -110z"/>
<path d="M4601 1318 c-78 -103 -79 -97 18 -127 l61 -19 0 119 c0 65 -2 119 -4
119 -2 0 -36 -42 -75 -92z"/>
<path d="M7635 1402 c-22 -11 -48 -28 -57 -38 -86 -97 -53 -308 66 -411 46
-42 94 -50 151 -28 82 31 122 108 112 215 -17 188 -152 318 -272 262z"/>
</g>
</svg>
